<svg xmlns="http://www.w3.org/2000/svg" xmlns:xlink="http://www.w3.org/1999/xlink" width="500" zoomAndPan="magnify" viewBox="0 0 375 374.999991" height="500" preserveAspectRatio="xMidYMid meet" version="1.0"><defs><g/><clipPath id="e7ebca4935"><path d="M 40.8125 143 L 134 143 L 134 224 L 40.8125 224 Z M 40.8125 143 " clip-rule="nonzero"/></clipPath><clipPath id="17b8252315"><path d="M 134 129 L 134.5625 129 L 134.5625 227 L 134 227 Z M 134 129 " clip-rule="nonzero"/></clipPath></defs><g clip-path="url(#e7ebca4935)"><path fill="#8c52ff" d="M 41 186.4375 C 40.8125 185.488281 40.8125 184.441406 40.8125 183.492188 C 40.8125 176.839844 43.757812 170.472656 47.460938 165.054688 C 50.789062 160.210938 55.160156 156.21875 60.292969 153.367188 C 66.089844 150.230469 73.5 147.949219 80.152344 148.425781 C 86.617188 148.902344 92.984375 150.136719 99.539062 150.421875 C 105.8125 150.707031 112.179688 150.707031 118.449219 149.851562 C 123.203125 149.089844 128.238281 147.855469 132.136719 144.910156 C 132.800781 144.433594 133.371094 143.960938 133.847656 143.390625 C 133.65625 143.578125 133.5625 144.246094 133.464844 144.433594 C 133.085938 145.386719 132.609375 146.335938 132.136719 147.191406 C 130.328125 150.230469 127.859375 152.894531 125.007812 154.886719 C 120.257812 158.214844 114.746094 159.925781 109.234375 160.78125 C 106.667969 161.160156 104.101562 161.351562 101.441406 161.351562 C 99.445312 161.351562 97.449219 161.066406 95.453125 161.253906 C 93.554688 161.351562 91.746094 162.109375 90.132812 163.0625 C 87.28125 164.773438 85.855469 167.621094 87.1875 170.851562 C 88.230469 173.324219 90.226562 175.796875 92.507812 177.21875 C 96.308594 179.597656 99.730469 182.636719 102.675781 185.964844 C 105.621094 189.289062 107.996094 193.089844 109.519531 197.273438 C 111.230469 202.117188 111.609375 207.25 110.5625 212.285156 C 109.707031 216.46875 107.902344 220.363281 105.71875 223.976562 C 107.996094 220.269531 105.90625 211.050781 104.957031 207.34375 C 102.582031 198.316406 95.832031 190.621094 86.710938 188.148438 C 79.296875 186.152344 70.460938 186.628906 64.1875 181.59375 C 62.859375 180.546875 61.527344 179.121094 60.863281 177.503906 C 60.578125 176.746094 60.292969 176.082031 59.722656 175.414062 C 56.394531 171.707031 51.550781 177.695312 50.3125 180.453125 C 47.273438 187.292969 47.84375 195.085938 50.980469 201.738281 C 51.074219 201.644531 42.519531 193.28125 41 186.4375 Z M 41 186.4375 " fill-opacity="1" fill-rule="nonzero"/></g><path fill="#8c52ff" d="M 78.0625 183.777344 C 66.945312 182.730469 56.777344 188.527344 51.738281 197.746094 C 56.394531 190.238281 65.042969 185.582031 74.453125 186.535156 C 87.566406 187.863281 97.257812 199.554688 95.929688 212.667969 C 94.597656 225.78125 82.910156 235.472656 69.796875 234.144531 C 60.386719 233.195312 52.785156 227.015625 49.742188 218.75 C 52.878906 228.824219 61.8125 236.519531 72.929688 237.566406 C 87.757812 238.992188 100.964844 228.15625 102.484375 213.332031 C 103.722656 198.507812 92.886719 185.296875 78.0625 183.777344 Z M 78.0625 183.777344 " fill-opacity="1" fill-rule="nonzero"/><path fill="#8c52ff" d="M 73.882812 190.621094 C 82.054688 191.378906 88.609375 197.082031 90.890625 204.398438 C 88.609375 198.316406 83.003906 193.757812 76.164062 193.089844 C 66.46875 192.140625 57.917969 199.171875 56.964844 208.867188 C 56.015625 218.558594 63.046875 227.113281 72.742188 228.0625 C 79.679688 228.726562 85.949219 225.304688 89.371094 219.792969 C 85.664062 226.542969 78.15625 230.816406 69.984375 230.058594 C 59.058594 229.011719 51.074219 219.320312 52.214844 208.390625 C 53.257812 197.558594 62.953125 189.574219 73.882812 190.621094 Z M 73.882812 190.621094 " fill-opacity="1" fill-rule="nonzero"/><path fill="#8c52ff" d="M 75.210938 138.828125 C 75.210938 139.363281 75.160156 139.894531 75.054688 140.421875 C 74.949219 140.949219 74.796875 141.460938 74.589844 141.957031 C 74.382812 142.453125 74.132812 142.921875 73.835938 143.367188 C 73.535156 143.816406 73.199219 144.226562 72.816406 144.605469 C 72.4375 144.988281 72.027344 145.324219 71.578125 145.625 C 71.132812 145.921875 70.664062 146.171875 70.167969 146.378906 C 69.671875 146.582031 69.160156 146.738281 68.632812 146.84375 C 68.105469 146.949219 67.574219 147 67.039062 147 C 66.503906 147 65.972656 146.949219 65.445312 146.84375 C 64.917969 146.738281 64.40625 146.582031 63.910156 146.378906 C 63.414062 146.171875 62.945312 145.921875 62.5 145.625 C 62.050781 145.324219 61.640625 144.988281 61.261719 144.605469 C 60.878906 144.226562 60.542969 143.816406 60.242188 143.367188 C 59.945312 142.921875 59.695312 142.453125 59.488281 141.957031 C 59.285156 141.460938 59.128906 140.949219 59.023438 140.421875 C 58.917969 139.894531 58.867188 139.363281 58.867188 138.828125 C 58.867188 138.292969 58.917969 137.761719 59.023438 137.234375 C 59.128906 136.707031 59.285156 136.195312 59.488281 135.699219 C 59.695312 135.203125 59.945312 134.734375 60.242188 134.289062 C 60.542969 133.839844 60.878906 133.429688 61.261719 133.050781 C 61.640625 132.667969 62.050781 132.332031 62.5 132.03125 C 62.945312 131.734375 63.414062 131.484375 63.910156 131.277344 C 64.40625 131.070312 64.917969 130.917969 65.445312 130.8125 C 65.972656 130.707031 66.503906 130.65625 67.039062 130.65625 C 67.574219 130.65625 68.105469 130.707031 68.632812 130.8125 C 69.160156 130.917969 69.671875 131.070312 70.167969 131.277344 C 70.664062 131.484375 71.132812 131.734375 71.578125 132.03125 C 72.027344 132.332031 72.4375 132.667969 72.816406 133.050781 C 73.199219 133.429688 73.535156 133.839844 73.835938 134.289062 C 74.132812 134.734375 74.382812 135.203125 74.589844 135.699219 C 74.796875 136.195312 74.949219 136.707031 75.054688 137.234375 C 75.160156 137.761719 75.210938 138.292969 75.210938 138.828125 Z M 75.210938 138.828125 " fill-opacity="1" fill-rule="nonzero"/><g clip-path="url(#17b8252315)"><path fill="#8c52ff" d="M 134.703125 143.292969 C 141.636719 142.914062 151.332031 143.484375 157.890625 140.824219 C 163.6875 138.449219 168.816406 134.835938 174.519531 132.269531 C 184.878906 127.710938 195.804688 129.515625 204.074219 137.308594 C 213.007812 145.859375 216.238281 162.015625 213.386719 173.515625 C 214.621094 168.382812 203.980469 147.378906 198.085938 147.855469 C 192.195312 148.332031 196.851562 160.589844 197.707031 163.0625 C 199.226562 168.003906 201.222656 172.945312 203.789062 177.410156 C 208.066406 184.917969 213.671875 190.714844 215.003906 199.457031 C 216.429688 208.390625 215.097656 217.515625 212.152344 226.066406 C 213.292969 222.929688 211.390625 216.945312 210.726562 213.710938 C 209.394531 207.058594 206.925781 200.597656 203.410156 194.707031 C 202.078125 192.425781 200.558594 190.238281 198.277344 188.910156 C 192.957031 185.679688 187.730469 191.09375 184.972656 195.179688 C 182.597656 198.792969 180.792969 202.785156 179.460938 206.964844 C 178.605469 209.722656 177.941406 212.570312 177.464844 215.519531 C 177.179688 217.132812 176.988281 218.84375 176.800781 220.554688 C 176.609375 222.074219 175.945312 224.640625 176.324219 226.066406 C 176.324219 226.066406 169.957031 204.113281 178.320312 184.632812 C 180.125 180.355469 180.222656 174.179688 180.222656 169.617188 C 180.222656 164.582031 179.554688 159.355469 178.035156 154.601562 C 176.703125 150.421875 174.234375 146.429688 169.292969 146.242188 C 167.675781 146.144531 166.15625 146.621094 164.539062 146.90625 C 159.410156 147.949219 154.085938 148.234375 148.859375 147.664062 C 146.769531 147.476562 144.679688 147.097656 142.777344 146.429688 C 142.875 146.527344 137.078125 145.386719 134.703125 143.292969 Z M 134.703125 143.292969 " fill-opacity="1" fill-rule="nonzero"/></g><g fill="#7b7b7b" fill-opacity="1"><g transform="translate(124.022933, 182.490091)"><g><path d="M 15.46875 0 L 3.6875 0 C 3.144531 0 2.648438 -0.128906 2.203125 -0.390625 C 1.753906 -0.660156 1.394531 -1.019531 1.125 -1.46875 C 0.863281 -1.914062 0.734375 -2.40625 0.734375 -2.9375 L 0.734375 -11.78125 C 0.734375 -12.320312 0.863281 -12.816406 1.125 -13.265625 C 1.394531 -13.710938 1.753906 -14.066406 2.203125 -14.328125 C 2.648438 -14.585938 3.144531 -14.71875 3.6875 -14.71875 L 15.46875 -14.71875 L 15.46875 -11.78125 L 3.6875 -11.78125 L 3.6875 -2.9375 L 15.46875 -2.9375 Z M 15.46875 0 "/></g></g></g><g fill="#7b7b7b" fill-opacity="1"><g transform="translate(143.085912, 182.490091)"><g><path d="M 12.515625 0 L 3.6875 0 C 3.144531 0 2.648438 -0.128906 2.203125 -0.390625 C 1.753906 -0.660156 1.394531 -1.019531 1.125 -1.46875 C 0.863281 -1.914062 0.734375 -2.40625 0.734375 -2.9375 L 0.734375 -11.78125 C 0.734375 -12.320312 0.863281 -12.816406 1.125 -13.265625 C 1.394531 -13.710938 1.753906 -14.066406 2.203125 -14.328125 C 2.648438 -14.585938 3.144531 -14.71875 3.6875 -14.71875 L 12.515625 -14.71875 C 13.054688 -14.71875 13.550781 -14.585938 14 -14.328125 C 14.445312 -14.066406 14.800781 -13.710938 15.0625 -13.265625 C 15.332031 -12.816406 15.46875 -12.320312 15.46875 -11.78125 L 15.46875 -2.9375 C 15.46875 -2.414062 15.332031 -1.929688 15.0625 -1.484375 C 14.800781 -1.035156 14.445312 -0.675781 14 -0.40625 C 13.5625 -0.132812 13.066406 0 12.515625 0 Z M 3.6875 -11.78125 L 3.6875 -2.9375 L 12.515625 -2.9375 L 12.515625 -11.78125 Z M 3.6875 -11.78125 "/></g></g></g><g fill="#7b7b7b" fill-opacity="1"><g transform="translate(162.148891, 182.490091)"><g><path d="M 3.6875 0 L 0.734375 0 L 0.734375 -13.25 C 0.734375 -13.65625 0.875 -14 1.15625 -14.28125 C 1.445312 -14.570312 1.796875 -14.71875 2.203125 -14.71875 C 2.609375 -14.71875 2.960938 -14.570312 3.265625 -14.28125 L 12.515625 -5.03125 L 12.515625 -14.71875 L 15.46875 -14.71875 L 15.46875 -1.46875 C 15.46875 -1.0625 15.320312 -0.710938 15.03125 -0.421875 C 14.738281 -0.140625 14.390625 0 13.984375 0 C 13.578125 0 13.226562 -0.144531 12.9375 -0.4375 L 3.6875 -9.703125 Z M 3.6875 0 "/></g></g></g><g fill="#7b7b7b" fill-opacity="1"><g transform="translate(181.211871, 182.490091)"><g><path d="M 15.46875 -14.71875 L 15.46875 -11.78125 L 3.6875 -11.78125 L 3.6875 -8.828125 L 15.46875 -8.828125 L 15.46875 -5.890625 L 3.6875 -5.890625 L 3.6875 -2.9375 L 15.46875 -2.9375 L 15.46875 0 L 3.6875 0 C 3.144531 0 2.648438 -0.128906 2.203125 -0.390625 C 1.753906 -0.660156 1.394531 -1.019531 1.125 -1.46875 C 0.863281 -1.914062 0.734375 -2.40625 0.734375 -2.9375 L 0.734375 -11.78125 C 0.734375 -12.320312 0.863281 -12.816406 1.125 -13.265625 C 1.394531 -13.710938 1.753906 -14.066406 2.203125 -14.328125 C 2.648438 -14.585938 3.144531 -14.71875 3.6875 -14.71875 Z M 15.46875 -14.71875 "/></g></g></g><g fill="#7b7b7b" fill-opacity="1"><g transform="translate(200.274849, 182.490091)"><g><path d="M 15.46875 -14.71875 L 15.46875 -12.65625 C 15.46875 -12.238281 15.316406 -11.882812 15.015625 -11.59375 L 10.78125 -7.359375 L 15.015625 -3.125 C 15.316406 -2.832031 15.46875 -2.476562 15.46875 -2.0625 L 15.46875 0 L 12.515625 0 L 12.515625 -1.46875 L 8.09375 -5.890625 L 3.6875 -1.46875 L 3.6875 0 L 0.734375 0 L 0.734375 -2.0625 C 0.734375 -2.476562 0.878906 -2.832031 1.171875 -3.125 L 5.40625 -7.359375 L 1.171875 -11.59375 C 0.878906 -11.882812 0.734375 -12.238281 0.734375 -12.65625 L 0.734375 -14.71875 L 3.6875 -14.71875 L 3.6875 -13.25 L 8.09375 -8.828125 L 12.515625 -13.25 L 12.515625 -14.71875 Z M 15.46875 -14.71875 "/></g></g></g><g fill="#7b7b7b" fill-opacity="1"><g transform="translate(219.337826, 182.490091)"><g><path d="M 7.328125 -16.4375 L 6.484375 -15.46875 L 2.578125 -15.46875 L 4.40625 -17.5625 C 4.90625 -18.125 5.523438 -18.40625 6.265625 -18.40625 L 6.625 -18.40625 C 7.09375 -18.40625 7.515625 -18.316406 7.890625 -18.140625 C 8.273438 -17.972656 8.601562 -17.738281 8.875 -17.4375 L 9.71875 -18.40625 L 13.625 -18.40625 L 11.796875 -16.3125 C 11.296875 -15.75 10.675781 -15.46875 9.9375 -15.46875 L 9.578125 -15.46875 C 9.117188 -15.46875 8.695312 -15.550781 8.3125 -15.71875 C 7.925781 -15.882812 7.597656 -16.125 7.328125 -16.4375 Z M 3.6875 -14.71875 L 12.515625 -14.71875 C 13.054688 -14.71875 13.550781 -14.585938 14 -14.328125 C 14.445312 -14.066406 14.800781 -13.710938 15.0625 -13.265625 C 15.332031 -12.816406 15.46875 -12.320312 15.46875 -11.78125 L 15.46875 0 L 12.515625 0 L 12.515625 -5.890625 L 3.6875 -5.890625 L 3.6875 0 L 0.734375 0 L 0.734375 -11.78125 C 0.734375 -12.320312 0.863281 -12.816406 1.125 -13.265625 C 1.394531 -13.710938 1.753906 -14.066406 2.203125 -14.328125 C 2.648438 -14.585938 3.144531 -14.71875 3.6875 -14.71875 Z M 3.6875 -11.78125 L 3.6875 -8.828125 L 12.515625 -8.828125 L 12.515625 -11.78125 Z M 3.6875 -11.78125 "/></g></g></g><g fill="#7b7b7b" fill-opacity="1"><g transform="translate(238.40081, 182.490091)"><g><path d="M 12.515625 0 L 3.6875 0 C 3.144531 0 2.648438 -0.128906 2.203125 -0.390625 C 1.753906 -0.660156 1.394531 -1.019531 1.125 -1.46875 C 0.863281 -1.914062 0.734375 -2.40625 0.734375 -2.9375 L 0.734375 -11.78125 C 0.734375 -12.320312 0.863281 -12.816406 1.125 -13.265625 C 1.394531 -13.710938 1.753906 -14.066406 2.203125 -14.328125 C 2.648438 -14.585938 3.144531 -14.71875 3.6875 -14.71875 L 12.515625 -14.71875 C 13.054688 -14.71875 13.550781 -14.585938 14 -14.328125 C 14.445312 -14.066406 14.800781 -13.710938 15.0625 -13.265625 C 15.332031 -12.816406 15.46875 -12.320312 15.46875 -11.78125 L 15.46875 -2.9375 C 15.46875 -2.414062 15.332031 -1.929688 15.0625 -1.484375 C 14.800781 -1.035156 14.445312 -0.675781 14 -0.40625 C 13.5625 -0.132812 13.066406 0 12.515625 0 Z M 3.6875 -11.78125 L 3.6875 -2.9375 L 12.515625 -2.9375 L 12.515625 -11.78125 Z M 3.6875 -11.78125 "/></g></g></g><g fill="#7b7b7b" fill-opacity="1"><g transform="translate(257.463793, 182.490091)"><g/></g></g><g fill="#7b7b7b" fill-opacity="1"><g transform="translate(268.431433, 182.490091)"><g><path d="M 12.515625 -14.71875 C 13.054688 -14.71875 13.550781 -14.585938 14 -14.328125 C 14.445312 -14.066406 14.800781 -13.710938 15.0625 -13.265625 C 15.332031 -12.816406 15.46875 -12.320312 15.46875 -11.78125 L 15.46875 -8.828125 C 15.46875 -8.296875 15.332031 -7.804688 15.0625 -7.359375 C 14.800781 -6.910156 14.445312 -6.550781 14 -6.28125 C 13.550781 -6.019531 13.054688 -5.890625 12.515625 -5.890625 L 3.6875 -5.890625 L 3.6875 0 L 0.734375 0 L 0.734375 -14.71875 Z M 3.6875 -8.828125 L 12.515625 -8.828125 L 12.515625 -11.78125 L 3.6875 -11.78125 Z M 3.6875 -8.828125 "/></g></g></g><g fill="#7b7b7b" fill-opacity="1"><g transform="translate(287.494416, 182.490091)"><g><path d="M 15.46875 0 L 3.6875 0 C 3.144531 0 2.648438 -0.128906 2.203125 -0.390625 C 1.753906 -0.660156 1.394531 -1.019531 1.125 -1.46875 C 0.863281 -1.914062 0.734375 -2.40625 0.734375 -2.9375 L 0.734375 -11.78125 C 0.734375 -12.320312 0.863281 -12.816406 1.125 -13.265625 C 1.394531 -13.710938 1.753906 -14.066406 2.203125 -14.328125 C 2.648438 -14.585938 3.144531 -14.71875 3.6875 -14.71875 L 15.46875 -14.71875 L 15.46875 -11.78125 L 3.6875 -11.78125 L 3.6875 -2.9375 L 15.46875 -2.9375 Z M 15.46875 0 "/></g></g></g><g fill="#7b7b7b" fill-opacity="1"><g transform="translate(306.5574, 182.490091)"><g><path d="M 12.515625 0 L 0.734375 0 L 0.734375 -14.71875 L 12.515625 -14.71875 C 13.054688 -14.71875 13.550781 -14.585938 14 -14.328125 C 14.445312 -14.066406 14.800781 -13.710938 15.0625 -13.265625 C 15.332031 -12.816406 15.46875 -12.320312 15.46875 -11.78125 L 15.46875 -2.9375 C 15.46875 -2.40625 15.332031 -1.914062 15.0625 -1.46875 C 14.800781 -1.019531 14.445312 -0.660156 14 -0.390625 C 13.550781 -0.128906 13.054688 0 12.515625 0 Z M 3.6875 -11.78125 L 3.6875 -2.9375 L 12.515625 -2.9375 L 12.515625 -11.78125 Z M 3.6875 -11.78125 "/></g></g></g><g fill="#646262" fill-opacity="1"><g transform="translate(139.088418, 200.166198)"><g><path d="M 5.734375 0 L 4.21875 -2.15625 C 4.03125 -2.132812 3.882812 -2.125 3.78125 -2.125 L 2.046875 -2.125 L 2.046875 0 L 1.046875 0 L 1.046875 -7 L 3.78125 -7 C 4.6875 -7 5.398438 -6.78125 5.921875 -6.34375 C 6.441406 -5.914062 6.703125 -5.320312 6.703125 -4.5625 C 6.703125 -4.019531 6.566406 -3.554688 6.296875 -3.171875 C 6.035156 -2.796875 5.65625 -2.519531 5.15625 -2.34375 L 6.8125 0 Z M 3.75 -2.984375 C 4.382812 -2.984375 4.867188 -3.117188 5.203125 -3.390625 C 5.535156 -3.660156 5.703125 -4.050781 5.703125 -4.5625 C 5.703125 -5.0625 5.535156 -5.445312 5.203125 -5.71875 C 4.867188 -5.988281 4.382812 -6.125 3.75 -6.125 L 2.046875 -6.125 L 2.046875 -2.984375 Z M 3.75 -2.984375 "/></g></g></g><g fill="#646262" fill-opacity="1"><g transform="translate(147.895561, 200.166198)"><g><path d="M 6.125 -0.875 L 6.125 0 L 1.046875 0 L 1.046875 -7 L 5.984375 -7 L 5.984375 -6.125 L 2.046875 -6.125 L 2.046875 -3.984375 L 5.5625 -3.984375 L 5.5625 -3.125 L 2.046875 -3.125 L 2.046875 -0.875 Z M 6.125 -0.875 "/></g></g></g><g fill="#646262" fill-opacity="1"><g transform="translate(156.132925, 200.166198)"><g><path d="M 1.046875 -7 L 4 -7 C 4.738281 -7 5.394531 -6.851562 5.96875 -6.5625 C 6.539062 -6.269531 6.984375 -5.859375 7.296875 -5.328125 C 7.617188 -4.796875 7.78125 -4.1875 7.78125 -3.5 C 7.78125 -2.8125 7.617188 -2.203125 7.296875 -1.671875 C 6.984375 -1.140625 6.539062 -0.726562 5.96875 -0.4375 C 5.394531 -0.144531 4.738281 0 4 0 L 1.046875 0 Z M 3.9375 -0.875 C 4.507812 -0.875 5.007812 -0.984375 5.4375 -1.203125 C 5.863281 -1.421875 6.191406 -1.726562 6.421875 -2.125 C 6.660156 -2.519531 6.78125 -2.976562 6.78125 -3.5 C 6.78125 -4.019531 6.660156 -4.476562 6.421875 -4.875 C 6.191406 -5.269531 5.863281 -5.578125 5.4375 -5.796875 C 5.007812 -6.015625 4.507812 -6.125 3.9375 -6.125 L 2.046875 -6.125 L 2.046875 -0.875 Z M 3.9375 -0.875 "/></g></g></g><g fill="#646262" fill-opacity="1"><g transform="translate(165.929672, 200.166198)"><g><path d="M 6.125 -0.875 L 6.125 0 L 1.046875 0 L 1.046875 -7 L 5.984375 -7 L 5.984375 -6.125 L 2.046875 -6.125 L 2.046875 -3.984375 L 5.5625 -3.984375 L 5.5625 -3.125 L 2.046875 -3.125 L 2.046875 -0.875 Z M 6.125 -0.875 "/></g></g></g><g fill="#646262" fill-opacity="1"><g transform="translate(174.167037, 200.166198)"><g/></g></g><g fill="#646262" fill-opacity="1"><g transform="translate(178.395984, 200.166198)"><g><path d="M 1.046875 -7 L 4 -7 C 4.738281 -7 5.394531 -6.851562 5.96875 -6.5625 C 6.539062 -6.269531 6.984375 -5.859375 7.296875 -5.328125 C 7.617188 -4.796875 7.78125 -4.1875 7.78125 -3.5 C 7.78125 -2.8125 7.617188 -2.203125 7.296875 -1.671875 C 6.984375 -1.140625 6.539062 -0.726562 5.96875 -0.4375 C 5.394531 -0.144531 4.738281 0 4 0 L 1.046875 0 Z M 3.9375 -0.875 C 4.507812 -0.875 5.007812 -0.984375 5.4375 -1.203125 C 5.863281 -1.421875 6.191406 -1.726562 6.421875 -2.125 C 6.660156 -2.519531 6.78125 -2.976562 6.78125 -3.5 C 6.78125 -4.019531 6.660156 -4.476562 6.421875 -4.875 C 6.191406 -5.269531 5.863281 -5.578125 5.4375 -5.796875 C 5.007812 -6.015625 4.507812 -6.125 3.9375 -6.125 L 2.046875 -6.125 L 2.046875 -0.875 Z M 3.9375 -0.875 "/></g></g></g><g fill="#646262" fill-opacity="1"><g transform="translate(188.192729, 200.166198)"><g><path d="M 6.125 -0.875 L 6.125 0 L 1.046875 0 L 1.046875 -7 L 5.984375 -7 L 5.984375 -6.125 L 2.046875 -6.125 L 2.046875 -3.984375 L 5.5625 -3.984375 L 5.5625 -3.125 L 2.046875 -3.125 L 2.046875 -0.875 Z M 6.125 -0.875 "/></g></g></g><g fill="#646262" fill-opacity="1"><g transform="translate(196.430094, 200.166198)"><g/></g></g><g fill="#646262" fill-opacity="1"><g transform="translate(200.659041, 200.166198)"><g><path d="M 5.515625 -1.75 L 1.796875 -1.75 L 1.015625 0 L -0.015625 0 L 3.15625 -7 L 4.15625 -7 L 7.328125 0 L 6.28125 0 Z M 5.15625 -2.546875 L 3.65625 -5.984375 L 2.140625 -2.546875 Z M 5.15625 -2.546875 "/></g></g></g><g fill="#646262" fill-opacity="1"><g transform="translate(209.516161, 200.166198)"><g><path d="M 4.1875 0.078125 C 3.476562 0.078125 2.84375 -0.0703125 2.28125 -0.375 C 1.71875 -0.6875 1.273438 -1.113281 0.953125 -1.65625 C 0.640625 -2.207031 0.484375 -2.820312 0.484375 -3.5 C 0.484375 -4.175781 0.640625 -4.785156 0.953125 -5.328125 C 1.273438 -5.878906 1.71875 -6.304688 2.28125 -6.609375 C 2.851562 -6.921875 3.488281 -7.078125 4.1875 -7.078125 C 4.738281 -7.078125 5.238281 -6.984375 5.6875 -6.796875 C 6.144531 -6.617188 6.53125 -6.347656 6.84375 -5.984375 L 6.203125 -5.359375 C 5.671875 -5.910156 5.015625 -6.1875 4.234375 -6.1875 C 3.710938 -6.1875 3.238281 -6.066406 2.8125 -5.828125 C 2.394531 -5.597656 2.066406 -5.28125 1.828125 -4.875 C 1.597656 -4.46875 1.484375 -4.007812 1.484375 -3.5 C 1.484375 -2.988281 1.597656 -2.53125 1.828125 -2.125 C 2.066406 -1.71875 2.394531 -1.394531 2.8125 -1.15625 C 3.238281 -0.925781 3.710938 -0.8125 4.234375 -0.8125 C 5.015625 -0.8125 5.671875 -1.09375 6.203125 -1.65625 L 6.84375 -1.015625 C 6.53125 -0.660156 6.144531 -0.390625 5.6875 -0.203125 C 5.226562 -0.015625 4.726562 0.078125 4.1875 0.078125 Z M 4.1875 0.078125 "/></g></g></g><g fill="#646262" fill-opacity="1"><g transform="translate(218.283319, 200.166198)"><g><path d="M 6.125 -0.875 L 6.125 0 L 1.046875 0 L 1.046875 -7 L 5.984375 -7 L 5.984375 -6.125 L 2.046875 -6.125 L 2.046875 -3.984375 L 5.5625 -3.984375 L 5.5625 -3.125 L 2.046875 -3.125 L 2.046875 -0.875 Z M 6.125 -0.875 "/></g></g></g><g fill="#646262" fill-opacity="1"><g transform="translate(226.520684, 200.166198)"><g><path d="M 3.09375 0.078125 C 2.5625 0.078125 2.050781 0 1.5625 -0.15625 C 1.070312 -0.320312 0.6875 -0.535156 0.40625 -0.796875 L 0.78125 -1.578125 C 1.050781 -1.335938 1.394531 -1.140625 1.8125 -0.984375 C 2.226562 -0.835938 2.65625 -0.765625 3.09375 -0.765625 C 3.664062 -0.765625 4.09375 -0.863281 4.375 -1.0625 C 4.664062 -1.257812 4.8125 -1.519531 4.8125 -1.84375 C 4.8125 -2.082031 4.734375 -2.273438 4.578125 -2.421875 C 4.421875 -2.578125 4.226562 -2.695312 4 -2.78125 C 3.769531 -2.863281 3.445312 -2.953125 3.03125 -3.046875 C 2.5 -3.171875 2.070312 -3.296875 1.75 -3.421875 C 1.425781 -3.554688 1.148438 -3.753906 0.921875 -4.015625 C 0.691406 -4.273438 0.578125 -4.628906 0.578125 -5.078125 C 0.578125 -5.453125 0.675781 -5.789062 0.875 -6.09375 C 1.070312 -6.394531 1.367188 -6.632812 1.765625 -6.8125 C 2.171875 -6.988281 2.671875 -7.078125 3.265625 -7.078125 C 3.671875 -7.078125 4.070312 -7.023438 4.46875 -6.921875 C 4.875 -6.816406 5.222656 -6.660156 5.515625 -6.453125 L 5.1875 -5.65625 C 4.882812 -5.84375 4.566406 -5.984375 4.234375 -6.078125 C 3.898438 -6.179688 3.578125 -6.234375 3.265625 -6.234375 C 2.691406 -6.234375 2.265625 -6.128906 1.984375 -5.921875 C 1.703125 -5.710938 1.5625 -5.445312 1.5625 -5.125 C 1.5625 -4.882812 1.640625 -4.6875 1.796875 -4.53125 C 1.960938 -4.382812 2.160156 -4.269531 2.390625 -4.1875 C 2.628906 -4.101562 2.953125 -4.015625 3.359375 -3.921875 C 3.890625 -3.796875 4.3125 -3.664062 4.625 -3.53125 C 4.945312 -3.40625 5.222656 -3.210938 5.453125 -2.953125 C 5.679688 -2.691406 5.796875 -2.34375 5.796875 -1.90625 C 5.796875 -1.539062 5.695312 -1.207031 5.5 -0.90625 C 5.300781 -0.601562 5 -0.363281 4.59375 -0.1875 C 4.1875 -0.0078125 3.6875 0.078125 3.09375 0.078125 Z M 3.09375 0.078125 "/></g></g></g><g fill="#646262" fill-opacity="1"><g transform="translate(234.268242, 200.166198)"><g><path d="M 3.09375 0.078125 C 2.5625 0.078125 2.050781 0 1.5625 -0.15625 C 1.070312 -0.320312 0.6875 -0.535156 0.40625 -0.796875 L 0.78125 -1.578125 C 1.050781 -1.335938 1.394531 -1.140625 1.8125 -0.984375 C 2.226562 -0.835938 2.65625 -0.765625 3.09375 -0.765625 C 3.664062 -0.765625 4.09375 -0.863281 4.375 -1.0625 C 4.664062 -1.257812 4.8125 -1.519531 4.8125 -1.84375 C 4.8125 -2.082031 4.734375 -2.273438 4.578125 -2.421875 C 4.421875 -2.578125 4.226562 -2.695312 4 -2.78125 C 3.769531 -2.863281 3.445312 -2.953125 3.03125 -3.046875 C 2.5 -3.171875 2.070312 -3.296875 1.75 -3.421875 C 1.425781 -3.554688 1.148438 -3.753906 0.921875 -4.015625 C 0.691406 -4.273438 0.578125 -4.628906 0.578125 -5.078125 C 0.578125 -5.453125 0.675781 -5.789062 0.875 -6.09375 C 1.070312 -6.394531 1.367188 -6.632812 1.765625 -6.8125 C 2.171875 -6.988281 2.671875 -7.078125 3.265625 -7.078125 C 3.671875 -7.078125 4.070312 -7.023438 4.46875 -6.921875 C 4.875 -6.816406 5.222656 -6.660156 5.515625 -6.453125 L 5.1875 -5.65625 C 4.882812 -5.84375 4.566406 -5.984375 4.234375 -6.078125 C 3.898438 -6.179688 3.578125 -6.234375 3.265625 -6.234375 C 2.691406 -6.234375 2.265625 -6.128906 1.984375 -5.921875 C 1.703125 -5.710938 1.5625 -5.445312 1.5625 -5.125 C 1.5625 -4.882812 1.640625 -4.6875 1.796875 -4.53125 C 1.960938 -4.382812 2.160156 -4.269531 2.390625 -4.1875 C 2.628906 -4.101562 2.953125 -4.015625 3.359375 -3.921875 C 3.890625 -3.796875 4.3125 -3.664062 4.625 -3.53125 C 4.945312 -3.40625 5.222656 -3.210938 5.453125 -2.953125 C 5.679688 -2.691406 5.796875 -2.34375 5.796875 -1.90625 C 5.796875 -1.539062 5.695312 -1.207031 5.5 -0.90625 C 5.300781 -0.601562 5 -0.363281 4.59375 -0.1875 C 4.1875 -0.0078125 3.6875 0.078125 3.09375 0.078125 Z M 3.09375 0.078125 "/></g></g></g><g fill="#646262" fill-opacity="1"><g transform="translate(242.015794, 200.166198)"><g><path d="M 1.046875 -7 L 2.046875 -7 L 2.046875 0 L 1.046875 0 Z M 1.046875 -7 "/></g></g></g><g fill="#646262" fill-opacity="1"><g transform="translate(246.654576, 200.166198)"><g><path d="M 5.765625 -3.625 C 6.171875 -3.507812 6.488281 -3.300781 6.71875 -3 C 6.945312 -2.707031 7.0625 -2.335938 7.0625 -1.890625 C 7.0625 -1.285156 6.832031 -0.816406 6.375 -0.484375 C 5.925781 -0.160156 5.265625 0 4.390625 0 L 1.046875 0 L 1.046875 -7 L 4.1875 -7 C 4.988281 -7 5.609375 -6.835938 6.046875 -6.515625 C 6.484375 -6.203125 6.703125 -5.757812 6.703125 -5.1875 C 6.703125 -4.820312 6.613281 -4.503906 6.4375 -4.234375 C 6.269531 -3.972656 6.046875 -3.769531 5.765625 -3.625 Z M 2.046875 -6.1875 L 2.046875 -3.953125 L 4.09375 -3.953125 C 4.613281 -3.953125 5.007812 -4.046875 5.28125 -4.234375 C 5.5625 -4.421875 5.703125 -4.695312 5.703125 -5.0625 C 5.703125 -5.4375 5.5625 -5.71875 5.28125 -5.90625 C 5.007812 -6.09375 4.613281 -6.1875 4.09375 -6.1875 Z M 4.34375 -0.8125 C 4.914062 -0.8125 5.34375 -0.90625 5.625 -1.09375 C 5.914062 -1.28125 6.0625 -1.570312 6.0625 -1.96875 C 6.0625 -2.75 5.488281 -3.140625 4.34375 -3.140625 L 2.046875 -3.140625 L 2.046875 -0.8125 Z M 4.34375 -0.8125 "/></g></g></g><g fill="#646262" fill-opacity="1"><g transform="translate(255.761601, 200.166198)"><g><path d="M 1.046875 -7 L 2.046875 -7 L 2.046875 0 L 1.046875 0 Z M 1.046875 -7 "/></g></g></g><g fill="#646262" fill-opacity="1"><g transform="translate(260.400383, 200.166198)"><g><path d="M 1.046875 -7 L 2.046875 -7 L 2.046875 -0.875 L 5.84375 -0.875 L 5.84375 0 L 1.046875 0 Z M 1.046875 -7 "/></g></g></g><g fill="#646262" fill-opacity="1"><g transform="translate(267.878044, 200.166198)"><g><path d="M 1.046875 -7 L 2.046875 -7 L 2.046875 0 L 1.046875 0 Z M 1.046875 -7 "/></g></g></g><g fill="#646262" fill-opacity="1"><g transform="translate(272.516826, 200.166198)"><g><path d="M 1.046875 -7 L 4 -7 C 4.738281 -7 5.394531 -6.851562 5.96875 -6.5625 C 6.539062 -6.269531 6.984375 -5.859375 7.296875 -5.328125 C 7.617188 -4.796875 7.78125 -4.1875 7.78125 -3.5 C 7.78125 -2.8125 7.617188 -2.203125 7.296875 -1.671875 C 6.984375 -1.140625 6.539062 -0.726562 5.96875 -0.4375 C 5.394531 -0.144531 4.738281 0 4 0 L 1.046875 0 Z M 3.9375 -0.875 C 4.507812 -0.875 5.007812 -0.984375 5.4375 -1.203125 C 5.863281 -1.421875 6.191406 -1.726562 6.421875 -2.125 C 6.660156 -2.519531 6.78125 -2.976562 6.78125 -3.5 C 6.78125 -4.019531 6.660156 -4.476562 6.421875 -4.875 C 6.191406 -5.269531 5.863281 -5.578125 5.4375 -5.796875 C 5.007812 -6.015625 4.507812 -6.125 3.9375 -6.125 L 2.046875 -6.125 L 2.046875 -0.875 Z M 3.9375 -0.875 "/></g></g></g><g fill="#646262" fill-opacity="1"><g transform="translate(282.313574, 200.166198)"><g><path d="M 5.515625 -1.75 L 1.796875 -1.75 L 1.015625 0 L -0.015625 0 L 3.15625 -7 L 4.15625 -7 L 7.328125 0 L 6.28125 0 Z M 5.15625 -2.546875 L 3.65625 -5.984375 L 2.140625 -2.546875 Z M 5.15625 -2.546875 "/></g></g></g><g fill="#646262" fill-opacity="1"><g transform="translate(291.170694, 200.166198)"><g><path d="M 1.046875 -7 L 4 -7 C 4.738281 -7 5.394531 -6.851562 5.96875 -6.5625 C 6.539062 -6.269531 6.984375 -5.859375 7.296875 -5.328125 C 7.617188 -4.796875 7.78125 -4.1875 7.78125 -3.5 C 7.78125 -2.8125 7.617188 -2.203125 7.296875 -1.671875 C 6.984375 -1.140625 6.539062 -0.726562 5.96875 -0.4375 C 5.394531 -0.144531 4.738281 0 4 0 L 1.046875 0 Z M 3.9375 -0.875 C 4.507812 -0.875 5.007812 -0.984375 5.4375 -1.203125 C 5.863281 -1.421875 6.191406 -1.726562 6.421875 -2.125 C 6.660156 -2.519531 6.78125 -2.976562 6.78125 -3.5 C 6.78125 -4.019531 6.660156 -4.476562 6.421875 -4.875 C 6.191406 -5.269531 5.863281 -5.578125 5.4375 -5.796875 C 5.007812 -6.015625 4.507812 -6.125 3.9375 -6.125 L 2.046875 -6.125 L 2.046875 -0.875 Z M 3.9375 -0.875 "/></g></g></g><g fill="#646262" fill-opacity="1"><g transform="translate(300.967443, 200.166198)"><g><path d="M 6.125 -0.875 L 6.125 0 L 1.046875 0 L 1.046875 -7 L 5.984375 -7 L 5.984375 -6.125 L 2.046875 -6.125 L 2.046875 -3.984375 L 5.5625 -3.984375 L 5.5625 -3.125 L 2.046875 -3.125 L 2.046875 -0.875 Z M 6.125 -0.875 "/></g></g></g><g fill="#646262" fill-opacity="1"><g transform="translate(46.377482, 259.914211)"><g><path d="M 9.046875 0 L 9.03125 -6.125 L 6 -1.015625 L 5.453125 -1.015625 L 2.40625 -6.078125 L 2.40625 0 L 1.265625 0 L 1.265625 -8.40625 L 2.25 -8.40625 L 5.75 -2.5 L 9.203125 -8.40625 L 10.1875 -8.40625 L 10.203125 0 Z M 9.046875 0 "/></g></g></g><g fill="#646262" fill-opacity="1"><g transform="translate(59.685503, 259.914211)"><g><path d="M 6.609375 -2.09375 L 2.140625 -2.09375 L 1.21875 0 L -0.015625 0 L 3.796875 -8.40625 L 4.984375 -8.40625 L 8.796875 0 L 7.53125 0 Z M 6.1875 -3.0625 L 4.375 -7.171875 L 2.5625 -3.0625 Z M 6.1875 -3.0625 "/></g></g></g><g fill="#646262" fill-opacity="1"><g transform="translate(70.317519, 259.914211)"><g><path d="M 4.53125 -8.40625 C 5.625 -8.40625 6.484375 -8.144531 7.109375 -7.625 C 7.734375 -7.101562 8.046875 -6.382812 8.046875 -5.46875 C 8.046875 -4.5625 7.734375 -3.847656 7.109375 -3.328125 C 6.484375 -2.804688 5.625 -2.546875 4.53125 -2.546875 L 2.453125 -2.546875 L 2.453125 0 L 1.265625 0 L 1.265625 -8.40625 Z M 4.5 -3.59375 C 5.257812 -3.59375 5.835938 -3.753906 6.234375 -4.078125 C 6.640625 -4.398438 6.84375 -4.863281 6.84375 -5.46875 C 6.84375 -6.082031 6.640625 -6.550781 6.234375 -6.875 C 5.835938 -7.195312 5.257812 -7.359375 4.5 -7.359375 L 2.453125 -7.359375 L 2.453125 -3.59375 Z M 4.5 -3.59375 "/></g></g></g><g fill="#646262" fill-opacity="1"><g transform="translate(80.829532, 259.914211)"><g><path d="M 7.359375 -1.046875 L 7.359375 0 L 1.265625 0 L 1.265625 -8.40625 L 7.1875 -8.40625 L 7.1875 -7.359375 L 2.453125 -7.359375 L 2.453125 -4.78125 L 6.671875 -4.78125 L 6.671875 -3.75 L 2.453125 -3.75 L 2.453125 -1.046875 Z M 7.359375 -1.046875 "/></g></g></g><g fill="#646262" fill-opacity="1"><g transform="translate(90.717544, 259.914211)"><g><path d="M 6.609375 -2.09375 L 2.140625 -2.09375 L 1.21875 0 L -0.015625 0 L 3.796875 -8.40625 L 4.984375 -8.40625 L 8.796875 0 L 7.53125 0 Z M 6.1875 -3.0625 L 4.375 -7.171875 L 2.5625 -3.0625 Z M 6.1875 -3.0625 "/></g></g></g><g fill="#646262" fill-opacity="1"><g transform="translate(101.349557, 259.914211)"><g><path d="M 8.484375 -8.40625 L 8.484375 0 L 7.5 0 L 2.453125 -6.265625 L 2.453125 0 L 1.265625 0 L 1.265625 -8.40625 L 2.25 -8.40625 L 7.28125 -2.140625 L 7.28125 -8.40625 Z M 8.484375 -8.40625 "/></g></g></g><g fill="#646262" fill-opacity="1"><g transform="translate(112.941568, 259.914211)"><g><path d="M 1.265625 -8.40625 L 4.796875 -8.40625 C 5.679688 -8.40625 6.46875 -8.226562 7.15625 -7.875 C 7.851562 -7.519531 8.390625 -7.023438 8.765625 -6.390625 C 9.148438 -5.753906 9.34375 -5.023438 9.34375 -4.203125 C 9.34375 -3.378906 9.148438 -2.648438 8.765625 -2.015625 C 8.390625 -1.378906 7.851562 -0.882812 7.15625 -0.53125 C 6.46875 -0.175781 5.679688 0 4.796875 0 L 1.265625 0 Z M 4.734375 -1.046875 C 5.410156 -1.046875 6.003906 -1.175781 6.515625 -1.4375 C 7.035156 -1.707031 7.4375 -2.078125 7.71875 -2.546875 C 8 -3.023438 8.140625 -3.578125 8.140625 -4.203125 C 8.140625 -4.828125 8 -5.375 7.71875 -5.84375 C 7.4375 -6.320312 7.035156 -6.691406 6.515625 -6.953125 C 6.003906 -7.222656 5.410156 -7.359375 4.734375 -7.359375 L 2.453125 -7.359375 L 2.453125 -1.046875 Z M 4.734375 -1.046875 "/></g></g></g><g fill="#646262" fill-opacity="1"><g transform="translate(124.701591, 259.914211)"><g><path d="M 5.046875 0.09375 C 4.203125 0.09375 3.4375 -0.0859375 2.75 -0.453125 C 2.070312 -0.828125 1.539062 -1.34375 1.15625 -2 C 0.769531 -2.65625 0.578125 -3.390625 0.578125 -4.203125 C 0.578125 -5.003906 0.769531 -5.734375 1.15625 -6.390625 C 1.539062 -7.046875 2.070312 -7.5625 2.75 -7.9375 C 3.4375 -8.3125 4.203125 -8.5 5.046875 -8.5 C 5.890625 -8.5 6.648438 -8.3125 7.328125 -7.9375 C 8.015625 -7.5625 8.546875 -7.046875 8.921875 -6.390625 C 9.304688 -5.742188 9.5 -5.015625 9.5 -4.203125 C 9.5 -3.378906 9.304688 -2.640625 8.921875 -1.984375 C 8.546875 -1.335938 8.015625 -0.828125 7.328125 -0.453125 C 6.648438 -0.0859375 5.890625 0.09375 5.046875 0.09375 Z M 5.046875 -0.96875 C 5.660156 -0.96875 6.210938 -1.109375 6.703125 -1.390625 C 7.203125 -1.671875 7.59375 -2.054688 7.875 -2.546875 C 8.15625 -3.035156 8.296875 -3.585938 8.296875 -4.203125 C 8.296875 -4.804688 8.15625 -5.351562 7.875 -5.84375 C 7.59375 -6.34375 7.203125 -6.726562 6.703125 -7 C 6.210938 -7.28125 5.660156 -7.421875 5.046875 -7.421875 C 4.429688 -7.421875 3.875 -7.28125 3.375 -7 C 2.875 -6.726562 2.484375 -6.34375 2.203125 -5.84375 C 1.921875 -5.351562 1.78125 -4.804688 1.78125 -4.203125 C 1.78125 -3.585938 1.921875 -3.035156 2.203125 -2.546875 C 2.484375 -2.054688 2.875 -1.671875 3.375 -1.390625 C 3.875 -1.109375 4.429688 -0.96875 5.046875 -0.96875 Z M 5.046875 -0.96875 "/></g></g></g><g fill="#646262" fill-opacity="1"><g transform="translate(136.629612, 259.914211)"><g/></g></g><g fill="#646262" fill-opacity="1"><g transform="translate(141.705622, 259.914211)"><g><path d="M 4.734375 0.09375 C 3.617188 0.09375 2.75 -0.222656 2.125 -0.859375 C 1.5 -1.503906 1.1875 -2.425781 1.1875 -3.625 L 1.1875 -8.40625 L 2.390625 -8.40625 L 2.390625 -3.671875 C 2.390625 -1.867188 3.175781 -0.96875 4.75 -0.96875 C 5.519531 -0.96875 6.109375 -1.1875 6.515625 -1.625 C 6.921875 -2.070312 7.125 -2.753906 7.125 -3.671875 L 7.125 -8.40625 L 8.296875 -8.40625 L 8.296875 -3.625 C 8.296875 -2.414062 7.984375 -1.492188 7.359375 -0.859375 C 6.734375 -0.222656 5.859375 0.09375 4.734375 0.09375 Z M 4.734375 0.09375 "/></g></g></g><g fill="#646262" fill-opacity="1"><g transform="translate(153.045634, 259.914211)"><g><path d="M 9.046875 0 L 9.03125 -6.125 L 6 -1.015625 L 5.453125 -1.015625 L 2.40625 -6.078125 L 2.40625 0 L 1.265625 0 L 1.265625 -8.40625 L 2.25 -8.40625 L 5.75 -2.5 L 9.203125 -8.40625 L 10.1875 -8.40625 L 10.203125 0 Z M 9.046875 0 "/></g></g></g><g fill="#646262" fill-opacity="1"><g transform="translate(166.353659, 259.914211)"><g/></g></g><g fill="#646262" fill-opacity="1"><g transform="translate(171.429674, 259.914211)"><g><path d="M 2.453125 -7.359375 L 2.453125 -4.421875 L 6.671875 -4.421875 L 6.671875 -3.390625 L 2.453125 -3.390625 L 2.453125 0 L 1.265625 0 L 1.265625 -8.40625 L 7.1875 -8.40625 L 7.1875 -7.359375 Z M 2.453125 -7.359375 "/></g></g></g><g fill="#646262" fill-opacity="1"><g transform="translate(180.897691, 259.914211)"><g><path d="M 4.734375 0.09375 C 3.617188 0.09375 2.75 -0.222656 2.125 -0.859375 C 1.5 -1.503906 1.1875 -2.425781 1.1875 -3.625 L 1.1875 -8.40625 L 2.390625 -8.40625 L 2.390625 -3.671875 C 2.390625 -1.867188 3.175781 -0.96875 4.75 -0.96875 C 5.519531 -0.96875 6.109375 -1.1875 6.515625 -1.625 C 6.921875 -2.070312 7.125 -2.753906 7.125 -3.671875 L 7.125 -8.40625 L 8.296875 -8.40625 L 8.296875 -3.625 C 8.296875 -2.414062 7.984375 -1.492188 7.359375 -0.859375 C 6.734375 -0.222656 5.859375 0.09375 4.734375 0.09375 Z M 4.734375 0.09375 "/></g></g></g><g fill="#646262" fill-opacity="1"><g transform="translate(192.237709, 259.914211)"><g><path d="M 2.921875 -7.359375 L 0.046875 -7.359375 L 0.046875 -8.40625 L 7 -8.40625 L 7 -7.359375 L 4.109375 -7.359375 L 4.109375 0 L 2.921875 0 Z M 2.921875 -7.359375 "/></g></g></g><g fill="#646262" fill-opacity="1"><g transform="translate(201.129722, 259.914211)"><g><path d="M 4.734375 0.09375 C 3.617188 0.09375 2.75 -0.222656 2.125 -0.859375 C 1.5 -1.503906 1.1875 -2.425781 1.1875 -3.625 L 1.1875 -8.40625 L 2.390625 -8.40625 L 2.390625 -3.671875 C 2.390625 -1.867188 3.175781 -0.96875 4.75 -0.96875 C 5.519531 -0.96875 6.109375 -1.1875 6.515625 -1.625 C 6.921875 -2.070312 7.125 -2.753906 7.125 -3.671875 L 7.125 -8.40625 L 8.296875 -8.40625 L 8.296875 -3.625 C 8.296875 -2.414062 7.984375 -1.492188 7.359375 -0.859375 C 6.734375 -0.222656 5.859375 0.09375 4.734375 0.09375 Z M 4.734375 0.09375 "/></g></g></g><g fill="#646262" fill-opacity="1"><g transform="translate(212.469741, 259.914211)"><g><path d="M 6.875 0 L 5.0625 -2.578125 C 4.84375 -2.566406 4.664062 -2.5625 4.53125 -2.5625 L 2.453125 -2.5625 L 2.453125 0 L 1.265625 0 L 1.265625 -8.40625 L 4.53125 -8.40625 C 5.625 -8.40625 6.484375 -8.144531 7.109375 -7.625 C 7.734375 -7.101562 8.046875 -6.382812 8.046875 -5.46875 C 8.046875 -4.820312 7.882812 -4.269531 7.5625 -3.8125 C 7.238281 -3.351562 6.78125 -3.019531 6.1875 -2.8125 L 8.1875 0 Z M 4.5 -3.578125 C 5.257812 -3.578125 5.835938 -3.738281 6.234375 -4.0625 C 6.640625 -4.394531 6.84375 -4.863281 6.84375 -5.46875 C 6.84375 -6.082031 6.640625 -6.550781 6.234375 -6.875 C 5.835938 -7.195312 5.257812 -7.359375 4.5 -7.359375 L 2.453125 -7.359375 L 2.453125 -3.578125 Z M 4.5 -3.578125 "/></g></g></g><g fill="#646262" fill-opacity="1"><g transform="translate(223.041758, 259.914211)"><g><path d="M 5.046875 0.09375 C 4.203125 0.09375 3.4375 -0.0859375 2.75 -0.453125 C 2.070312 -0.828125 1.539062 -1.34375 1.15625 -2 C 0.769531 -2.65625 0.578125 -3.390625 0.578125 -4.203125 C 0.578125 -5.003906 0.769531 -5.734375 1.15625 -6.390625 C 1.539062 -7.046875 2.070312 -7.5625 2.75 -7.9375 C 3.4375 -8.3125 4.203125 -8.5 5.046875 -8.5 C 5.890625 -8.5 6.648438 -8.3125 7.328125 -7.9375 C 8.015625 -7.5625 8.546875 -7.046875 8.921875 -6.390625 C 9.304688 -5.742188 9.5 -5.015625 9.5 -4.203125 C 9.5 -3.378906 9.304688 -2.640625 8.921875 -1.984375 C 8.546875 -1.335938 8.015625 -0.828125 7.328125 -0.453125 C 6.648438 -0.0859375 5.890625 0.09375 5.046875 0.09375 Z M 5.046875 -0.96875 C 5.660156 -0.96875 6.210938 -1.109375 6.703125 -1.390625 C 7.203125 -1.671875 7.59375 -2.054688 7.875 -2.546875 C 8.15625 -3.035156 8.296875 -3.585938 8.296875 -4.203125 C 8.296875 -4.804688 8.15625 -5.351562 7.875 -5.84375 C 7.59375 -6.34375 7.203125 -6.726562 6.703125 -7 C 6.210938 -7.28125 5.660156 -7.421875 5.046875 -7.421875 C 4.429688 -7.421875 3.875 -7.28125 3.375 -7 C 2.875 -6.726562 2.484375 -6.34375 2.203125 -5.84375 C 1.921875 -5.351562 1.78125 -4.804688 1.78125 -4.203125 C 1.78125 -3.585938 1.921875 -3.035156 2.203125 -2.546875 C 2.484375 -2.054688 2.875 -1.671875 3.375 -1.390625 C 3.875 -1.109375 4.429688 -0.96875 5.046875 -0.96875 Z M 5.046875 -0.96875 "/></g></g></g><g fill="#646262" fill-opacity="1"><g transform="translate(234.969785, 259.914211)"><g/></g></g><g fill="#646262" fill-opacity="1"><g transform="translate(240.045789, 259.914211)"><g><path d="M 6.609375 -2.09375 L 2.140625 -2.09375 L 1.21875 0 L -0.015625 0 L 3.796875 -8.40625 L 4.984375 -8.40625 L 8.796875 0 L 7.53125 0 Z M 6.1875 -3.0625 L 4.375 -7.171875 L 2.5625 -3.0625 Z M 6.1875 -3.0625 "/></g></g></g><g fill="#646262" fill-opacity="1"><g transform="translate(250.677807, 259.914211)"><g><path d="M 5.015625 0.09375 C 4.171875 0.09375 3.410156 -0.0859375 2.734375 -0.453125 C 2.066406 -0.828125 1.539062 -1.335938 1.15625 -1.984375 C 0.769531 -2.640625 0.578125 -3.378906 0.578125 -4.203125 C 0.578125 -5.015625 0.769531 -5.742188 1.15625 -6.390625 C 1.539062 -7.046875 2.070312 -7.5625 2.75 -7.9375 C 3.425781 -8.3125 4.1875 -8.5 5.03125 -8.5 C 5.6875 -8.5 6.285156 -8.390625 6.828125 -8.171875 C 7.367188 -7.953125 7.832031 -7.625 8.21875 -7.1875 L 7.4375 -6.4375 C 6.800781 -7.09375 6.015625 -7.421875 5.078125 -7.421875 C 4.453125 -7.421875 3.882812 -7.28125 3.375 -7 C 2.875 -6.726562 2.484375 -6.34375 2.203125 -5.84375 C 1.921875 -5.351562 1.78125 -4.804688 1.78125 -4.203125 C 1.78125 -3.585938 1.921875 -3.035156 2.203125 -2.546875 C 2.484375 -2.054688 2.875 -1.671875 3.375 -1.390625 C 3.882812 -1.109375 4.453125 -0.96875 5.078125 -0.96875 C 6.015625 -0.96875 6.800781 -1.304688 7.4375 -1.984375 L 8.21875 -1.21875 C 7.832031 -0.789062 7.363281 -0.460938 6.8125 -0.234375 C 6.269531 -0.015625 5.671875 0.09375 5.015625 0.09375 Z M 5.015625 0.09375 "/></g></g></g><g fill="#646262" fill-opacity="1"><g transform="translate(261.201816, 259.914211)"><g><path d="M 7.359375 -1.046875 L 7.359375 0 L 1.265625 0 L 1.265625 -8.40625 L 7.1875 -8.40625 L 7.1875 -7.359375 L 2.453125 -7.359375 L 2.453125 -4.78125 L 6.671875 -4.78125 L 6.671875 -3.75 L 2.453125 -3.75 L 2.453125 -1.046875 Z M 7.359375 -1.046875 "/></g></g></g><g fill="#646262" fill-opacity="1"><g transform="translate(271.089831, 259.914211)"><g><path d="M 3.703125 0.09375 C 3.078125 0.09375 2.46875 0 1.875 -0.1875 C 1.289062 -0.382812 0.828125 -0.640625 0.484375 -0.953125 L 0.9375 -1.890625 C 1.257812 -1.609375 1.671875 -1.375 2.171875 -1.1875 C 2.671875 -1.007812 3.179688 -0.921875 3.703125 -0.921875 C 4.398438 -0.921875 4.921875 -1.035156 5.265625 -1.265625 C 5.609375 -1.503906 5.78125 -1.820312 5.78125 -2.21875 C 5.78125 -2.507812 5.6875 -2.742188 5.5 -2.921875 C 5.3125 -3.097656 5.078125 -3.234375 4.796875 -3.328125 C 4.523438 -3.429688 4.140625 -3.539062 3.640625 -3.65625 C 3.003906 -3.8125 2.492188 -3.960938 2.109375 -4.109375 C 1.722656 -4.265625 1.390625 -4.5 1.109375 -4.8125 C 0.835938 -5.132812 0.703125 -5.5625 0.703125 -6.09375 C 0.703125 -6.539062 0.816406 -6.941406 1.046875 -7.296875 C 1.285156 -7.660156 1.644531 -7.953125 2.125 -8.171875 C 2.601562 -8.390625 3.195312 -8.5 3.90625 -8.5 C 4.40625 -8.5 4.894531 -8.429688 5.375 -8.296875 C 5.851562 -8.171875 6.265625 -7.988281 6.609375 -7.75 L 6.21875 -6.796875 C 5.863281 -7.015625 5.484375 -7.179688 5.078125 -7.296875 C 4.679688 -7.410156 4.289062 -7.46875 3.90625 -7.46875 C 3.226562 -7.46875 2.71875 -7.34375 2.375 -7.09375 C 2.039062 -6.851562 1.875 -6.535156 1.875 -6.140625 C 1.875 -5.859375 1.96875 -5.625 2.15625 -5.4375 C 2.351562 -5.257812 2.59375 -5.117188 2.875 -5.015625 C 3.15625 -4.921875 3.539062 -4.816406 4.03125 -4.703125 C 4.664062 -4.546875 5.171875 -4.390625 5.546875 -4.234375 C 5.929688 -4.085938 6.257812 -3.859375 6.53125 -3.546875 C 6.8125 -3.234375 6.953125 -2.816406 6.953125 -2.296875 C 6.953125 -1.847656 6.832031 -1.441406 6.59375 -1.078125 C 6.351562 -0.722656 5.988281 -0.4375 5.5 -0.21875 C 5.019531 -0.0078125 4.421875 0.09375 3.703125 0.09375 Z M 3.703125 0.09375 "/></g></g></g><g fill="#646262" fill-opacity="1"><g transform="translate(280.389849, 259.914211)"><g><path d="M 3.703125 0.09375 C 3.078125 0.09375 2.46875 0 1.875 -0.1875 C 1.289062 -0.382812 0.828125 -0.640625 0.484375 -0.953125 L 0.9375 -1.890625 C 1.257812 -1.609375 1.671875 -1.375 2.171875 -1.1875 C 2.671875 -1.007812 3.179688 -0.921875 3.703125 -0.921875 C 4.398438 -0.921875 4.921875 -1.035156 5.265625 -1.265625 C 5.609375 -1.503906 5.78125 -1.820312 5.78125 -2.21875 C 5.78125 -2.507812 5.6875 -2.742188 5.5 -2.921875 C 5.3125 -3.097656 5.078125 -3.234375 4.796875 -3.328125 C 4.523438 -3.429688 4.140625 -3.539062 3.640625 -3.65625 C 3.003906 -3.8125 2.492188 -3.960938 2.109375 -4.109375 C 1.722656 -4.265625 1.390625 -4.5 1.109375 -4.8125 C 0.835938 -5.132812 0.703125 -5.5625 0.703125 -6.09375 C 0.703125 -6.539062 0.816406 -6.941406 1.046875 -7.296875 C 1.285156 -7.660156 1.644531 -7.953125 2.125 -8.171875 C 2.601562 -8.390625 3.195312 -8.5 3.90625 -8.5 C 4.40625 -8.5 4.894531 -8.429688 5.375 -8.296875 C 5.851562 -8.171875 6.265625 -7.988281 6.609375 -7.75 L 6.21875 -6.796875 C 5.863281 -7.015625 5.484375 -7.179688 5.078125 -7.296875 C 4.679688 -7.410156 4.289062 -7.46875 3.90625 -7.46875 C 3.226562 -7.46875 2.71875 -7.34375 2.375 -7.09375 C 2.039062 -6.851562 1.875 -6.535156 1.875 -6.140625 C 1.875 -5.859375 1.96875 -5.625 2.15625 -5.4375 C 2.351562 -5.257812 2.59375 -5.117188 2.875 -5.015625 C 3.15625 -4.921875 3.539062 -4.816406 4.03125 -4.703125 C 4.664062 -4.546875 5.171875 -4.390625 5.546875 -4.234375 C 5.929688 -4.085938 6.257812 -3.859375 6.53125 -3.546875 C 6.8125 -3.234375 6.953125 -2.816406 6.953125 -2.296875 C 6.953125 -1.847656 6.832031 -1.441406 6.59375 -1.078125 C 6.351562 -0.722656 5.988281 -0.4375 5.5 -0.21875 C 5.019531 -0.0078125 4.421875 0.09375 3.703125 0.09375 Z M 3.703125 0.09375 "/></g></g></g><g fill="#646262" fill-opacity="1"><g transform="translate(289.689867, 259.914211)"><g><path d="M 1.265625 -8.40625 L 2.453125 -8.40625 L 2.453125 0 L 1.265625 0 Z M 2.578125 -10.640625 L 4.046875 -10.640625 L 2.03125 -9.078125 L 0.953125 -9.078125 Z M 2.578125 -10.640625 "/></g></g></g><g fill="#646262" fill-opacity="1"><g transform="translate(295.257875, 259.914211)"><g><path d="M 8.5625 -8.40625 L 4.875 0 L 3.6875 0 L -0.015625 -8.40625 L 1.28125 -8.40625 L 4.3125 -1.5 L 7.359375 -8.40625 Z M 8.5625 -8.40625 "/></g></g></g><g fill="#646262" fill-opacity="1"><g transform="translate(305.649888, 259.914211)"><g><path d="M 7.359375 -1.046875 L 7.359375 0 L 1.265625 0 L 1.265625 -8.40625 L 7.1875 -8.40625 L 7.1875 -7.359375 L 2.453125 -7.359375 L 2.453125 -4.78125 L 6.671875 -4.78125 L 6.671875 -3.75 L 2.453125 -3.75 L 2.453125 -1.046875 Z M 7.359375 -1.046875 "/></g></g></g><g fill="#646262" fill-opacity="1"><g transform="translate(315.537903, 259.914211)"><g><path d="M 1.265625 -8.40625 L 2.453125 -8.40625 L 2.453125 -1.046875 L 7.015625 -1.046875 L 7.015625 0 L 1.265625 0 Z M 1.265625 -8.40625 "/></g></g></g></svg>