<svg xmlns="http://www.w3.org/2000/svg" xmlns:xlink="http://www.w3.org/1999/xlink" width="50" zoomAndPan="magnify" viewBox="0 0 375 374.999991" height="500" preserveAspectRatio="xMidYMid meet" version="1.0"><defs><clipPath id="be4ab439f4"><path d="M 87.339844 86 L 337 86 L 337 303 L 87.339844 303 Z M 87.339844 86 " clip-rule="nonzero"/></clipPath></defs><g clip-path="url(#be4ab439f4)"><path fill="#8c52ff" d="M 87.847656 202.15625 C 87.339844 199.613281 87.339844 196.816406 87.339844 194.273438 C 87.339844 176.472656 95.222656 159.4375 105.136719 144.941406 C 114.039062 131.976562 125.734375 121.296875 139.464844 113.667969 C 154.976562 105.277344 174.8125 99.171875 192.609375 100.445312 C 209.902344 101.714844 226.9375 105.019531 244.484375 105.785156 C 261.265625 106.546875 278.304688 106.546875 295.085938 104.257812 C 307.800781 102.222656 321.277344 98.917969 331.703125 91.035156 C 333.480469 89.765625 335.007812 88.492188 336.277344 86.96875 C 335.769531 87.476562 335.515625 89.257812 335.261719 89.765625 C 334.246094 92.308594 332.972656 94.851562 331.703125 97.136719 C 326.871094 105.277344 320.257812 112.394531 312.632812 117.734375 C 299.917969 126.636719 285.167969 131.210938 270.421875 133.5 C 263.554688 134.519531 256.6875 135.027344 249.570312 135.027344 C 244.230469 135.027344 238.890625 134.261719 233.550781 134.773438 C 228.464844 135.027344 223.632812 137.0625 219.308594 139.601562 C 211.683594 144.179688 207.867188 151.808594 211.425781 160.453125 C 214.222656 167.066406 219.5625 173.675781 225.667969 177.492188 C 235.839844 183.847656 244.992188 191.984375 252.875 200.886719 C 260.757812 209.785156 267.113281 219.957031 271.183594 231.144531 C 275.761719 244.113281 276.777344 257.84375 273.980469 271.320312 C 271.691406 282.507812 266.859375 292.933594 261.011719 302.597656 C 267.113281 292.679688 261.519531 268.015625 258.976562 258.097656 C 252.621094 233.941406 234.566406 213.34375 210.15625 206.734375 C 190.320312 201.394531 166.675781 202.664062 149.890625 189.1875 C 146.332031 186.390625 142.773438 182.578125 140.992188 178.253906 C 140.230469 176.21875 139.464844 174.441406 137.941406 172.660156 C 129.039062 162.742188 116.070312 178.761719 112.765625 186.136719 C 104.628906 204.445312 106.15625 225.296875 114.546875 243.09375 C 114.800781 242.839844 91.914062 220.464844 87.847656 202.15625 Z M 87.847656 202.15625 " fill-opacity="1" fill-rule="nonzero"/></g><path fill="#8c52ff" d="M 187.015625 195.035156 C 157.265625 192.238281 130.058594 207.75 116.582031 232.414062 C 129.039062 212.328125 152.179688 199.867188 177.355469 202.410156 C 212.445312 205.96875 238.382812 237.246094 234.820312 272.335938 C 231.261719 307.429688 199.984375 333.363281 164.894531 329.804688 C 139.71875 327.261719 119.378906 310.734375 111.242188 288.613281 C 119.632812 315.566406 143.535156 336.164062 173.285156 338.960938 C 212.953125 342.773438 248.296875 313.785156 252.367188 274.117188 C 255.671875 234.449219 226.683594 199.105469 187.015625 195.035156 Z M 187.015625 195.035156 " fill-opacity="1" fill-rule="nonzero"/><path fill="#8c52ff" d="M 175.828125 213.34375 C 197.695312 215.378906 215.242188 230.636719 221.34375 250.214844 C 215.242188 233.941406 200.238281 221.734375 181.929688 219.957031 C 155.996094 217.414062 133.109375 236.230469 130.566406 262.167969 C 128.023438 288.101562 146.839844 310.988281 172.777344 313.53125 C 191.339844 315.3125 208.121094 306.15625 217.277344 291.410156 C 207.359375 309.460938 187.269531 320.90625 165.402344 318.871094 C 136.160156 316.074219 114.800781 290.136719 117.851562 260.894531 C 120.648438 231.90625 146.585938 210.546875 175.828125 213.34375 Z M 175.828125 213.34375 " fill-opacity="1" fill-rule="nonzero"/><path fill="#8c52ff" d="M 179.386719 74.761719 C 179.386719 75.476562 179.351562 76.191406 179.28125 76.90625 C 179.210938 77.617188 179.109375 78.324219 178.96875 79.027344 C 178.828125 79.730469 178.65625 80.425781 178.445312 81.109375 C 178.238281 81.796875 177.996094 82.46875 177.722656 83.128906 C 177.449219 83.792969 177.144531 84.4375 176.804688 85.070312 C 176.46875 85.703125 176.101562 86.316406 175.703125 86.910156 C 175.304688 87.507812 174.878906 88.082031 174.425781 88.636719 C 173.96875 89.1875 173.488281 89.71875 172.984375 90.226562 C 172.476562 90.730469 171.945312 91.210938 171.394531 91.667969 C 170.839844 92.121094 170.265625 92.546875 169.667969 92.945312 C 169.074219 93.34375 168.460938 93.710938 167.828125 94.046875 C 167.195312 94.386719 166.550781 94.691406 165.886719 94.964844 C 165.226562 95.238281 164.554688 95.480469 163.867188 95.6875 C 163.183594 95.894531 162.488281 96.070312 161.785156 96.210938 C 161.082031 96.347656 160.375 96.453125 159.664062 96.523438 C 158.949219 96.59375 158.234375 96.628906 157.519531 96.628906 C 156.804688 96.628906 156.089844 96.59375 155.375 96.523438 C 154.664062 96.453125 153.957031 96.347656 153.253906 96.210938 C 152.550781 96.070312 151.855469 95.894531 151.171875 95.6875 C 150.488281 95.480469 149.8125 95.238281 149.152344 94.964844 C 148.488281 94.691406 147.84375 94.386719 147.210938 94.046875 C 146.578125 93.710938 145.964844 93.34375 145.371094 92.945312 C 144.773438 92.546875 144.199219 92.121094 143.648438 91.667969 C 143.09375 91.210938 142.5625 90.730469 142.058594 90.226562 C 141.550781 89.71875 141.070312 89.1875 140.617188 88.636719 C 140.160156 88.082031 139.734375 87.507812 139.335938 86.910156 C 138.9375 86.316406 138.570312 85.703125 138.234375 85.070312 C 137.894531 84.4375 137.589844 83.792969 137.316406 83.128906 C 137.042969 82.46875 136.800781 81.796875 136.59375 81.109375 C 136.386719 80.425781 136.210938 79.730469 136.070312 79.027344 C 135.933594 78.324219 135.828125 77.617188 135.757812 76.90625 C 135.6875 76.191406 135.652344 75.476562 135.652344 74.761719 C 135.652344 74.046875 135.6875 73.332031 135.757812 72.617188 C 135.828125 71.90625 135.933594 71.199219 136.070312 70.496094 C 136.210938 69.792969 136.386719 69.097656 136.59375 68.414062 C 136.800781 67.730469 137.042969 67.054688 137.316406 66.394531 C 137.589844 65.730469 137.894531 65.085938 138.234375 64.453125 C 138.570312 63.820312 138.9375 63.207031 139.335938 62.613281 C 139.734375 62.015625 140.160156 61.441406 140.617188 60.890625 C 141.070312 60.335938 141.550781 59.804688 142.058594 59.300781 C 142.5625 58.792969 143.09375 58.3125 143.648438 57.859375 C 144.199219 57.402344 144.773438 56.976562 145.371094 56.578125 C 145.964844 56.179688 146.578125 55.8125 147.210938 55.476562 C 147.84375 55.136719 148.488281 54.832031 149.152344 54.558594 C 149.8125 54.285156 150.488281 54.042969 151.171875 53.835938 C 151.855469 53.628906 152.550781 53.453125 153.253906 53.3125 C 153.957031 53.175781 154.664062 53.070312 155.375 53 C 156.089844 52.929688 156.804688 52.894531 157.519531 52.894531 C 158.234375 52.894531 158.949219 52.929688 159.664062 53 C 160.375 53.070312 161.082031 53.175781 161.785156 53.3125 C 162.488281 53.453125 163.183594 53.628906 163.867188 53.835938 C 164.554688 54.042969 165.226562 54.285156 165.886719 54.558594 C 166.550781 54.832031 167.195312 55.136719 167.828125 55.476562 C 168.460938 55.8125 169.074219 56.179688 169.667969 56.578125 C 170.265625 56.976562 170.839844 57.402344 171.394531 57.859375 C 171.945312 58.3125 172.476562 58.792969 172.984375 59.300781 C 173.488281 59.804688 173.96875 60.335938 174.425781 60.890625 C 174.878906 61.441406 175.304688 62.015625 175.703125 62.613281 C 176.101562 63.207031 176.46875 63.820312 176.804688 64.453125 C 177.144531 65.085938 177.449219 65.730469 177.722656 66.394531 C 177.996094 67.054688 178.238281 67.730469 178.445312 68.414062 C 178.65625 69.097656 178.828125 69.792969 178.96875 70.496094 C 179.109375 71.199219 179.210938 71.90625 179.28125 72.617188 C 179.351562 73.332031 179.386719 74.046875 179.386719 74.761719 Z M 179.386719 74.761719 " fill-opacity="1" fill-rule="nonzero"/></svg>