<svg xmlns="http://www.w3.org/2000/svg" xmlns:xlink="http://www.w3.org/1999/xlink" width="500" zoomAndPan="magnify" viewBox="0 0 375 374.999991" height="500" preserveAspectRatio="xMidYMid meet" version="1.0"><defs><g/></defs><g fill="#7b7b7b" fill-opacity="1"><g transform="translate(94.125439, 189.749988)"><g><path d="M 15.46875 0 L 3.6875 0 C 3.144531 0 2.648438 -0.128906 2.203125 -0.390625 C 1.753906 -0.660156 1.394531 -1.019531 1.125 -1.46875 C 0.863281 -1.914062 0.734375 -2.40625 0.734375 -2.9375 L 0.734375 -11.78125 C 0.734375 -12.320312 0.863281 -12.816406 1.125 -13.265625 C 1.394531 -13.710938 1.753906 -14.066406 2.203125 -14.328125 C 2.648438 -14.585938 3.144531 -14.71875 3.6875 -14.71875 L 15.46875 -14.71875 L 15.46875 -11.78125 L 3.6875 -11.78125 L 3.6875 -2.9375 L 15.46875 -2.9375 Z M 15.46875 0 "/></g></g></g><g fill="#7b7b7b" fill-opacity="1"><g transform="translate(113.188418, 189.749988)"><g><path d="M 12.515625 0 L 3.6875 0 C 3.144531 0 2.648438 -0.128906 2.203125 -0.390625 C 1.753906 -0.660156 1.394531 -1.019531 1.125 -1.46875 C 0.863281 -1.914062 0.734375 -2.40625 0.734375 -2.9375 L 0.734375 -11.78125 C 0.734375 -12.320312 0.863281 -12.816406 1.125 -13.265625 C 1.394531 -13.710938 1.753906 -14.066406 2.203125 -14.328125 C 2.648438 -14.585938 3.144531 -14.71875 3.6875 -14.71875 L 12.515625 -14.71875 C 13.054688 -14.71875 13.550781 -14.585938 14 -14.328125 C 14.445312 -14.066406 14.800781 -13.710938 15.0625 -13.265625 C 15.332031 -12.816406 15.46875 -12.320312 15.46875 -11.78125 L 15.46875 -2.9375 C 15.46875 -2.414062 15.332031 -1.929688 15.0625 -1.484375 C 14.800781 -1.035156 14.445312 -0.675781 14 -0.40625 C 13.5625 -0.132812 13.066406 0 12.515625 0 Z M 3.6875 -11.78125 L 3.6875 -2.9375 L 12.515625 -2.9375 L 12.515625 -11.78125 Z M 3.6875 -11.78125 "/></g></g></g><g fill="#7b7b7b" fill-opacity="1"><g transform="translate(132.251397, 189.749988)"><g><path d="M 3.6875 0 L 0.734375 0 L 0.734375 -13.25 C 0.734375 -13.65625 0.875 -14 1.15625 -14.28125 C 1.445312 -14.570312 1.796875 -14.71875 2.203125 -14.71875 C 2.609375 -14.71875 2.960938 -14.570312 3.265625 -14.28125 L 12.515625 -5.03125 L 12.515625 -14.71875 L 15.46875 -14.71875 L 15.46875 -1.46875 C 15.46875 -1.0625 15.320312 -0.710938 15.03125 -0.421875 C 14.738281 -0.140625 14.390625 0 13.984375 0 C 13.578125 0 13.226562 -0.144531 12.9375 -0.4375 L 3.6875 -9.703125 Z M 3.6875 0 "/></g></g></g><g fill="#7b7b7b" fill-opacity="1"><g transform="translate(151.314377, 189.749988)"><g><path d="M 15.46875 -14.71875 L 15.46875 -11.78125 L 3.6875 -11.78125 L 3.6875 -8.828125 L 15.46875 -8.828125 L 15.46875 -5.890625 L 3.6875 -5.890625 L 3.6875 -2.9375 L 15.46875 -2.9375 L 15.46875 0 L 3.6875 0 C 3.144531 0 2.648438 -0.128906 2.203125 -0.390625 C 1.753906 -0.660156 1.394531 -1.019531 1.125 -1.46875 C 0.863281 -1.914062 0.734375 -2.40625 0.734375 -2.9375 L 0.734375 -11.78125 C 0.734375 -12.320312 0.863281 -12.816406 1.125 -13.265625 C 1.394531 -13.710938 1.753906 -14.066406 2.203125 -14.328125 C 2.648438 -14.585938 3.144531 -14.71875 3.6875 -14.71875 Z M 15.46875 -14.71875 "/></g></g></g><g fill="#7b7b7b" fill-opacity="1"><g transform="translate(170.377355, 189.749988)"><g><path d="M 15.46875 -14.71875 L 15.46875 -12.65625 C 15.46875 -12.238281 15.316406 -11.882812 15.015625 -11.59375 L 10.78125 -7.359375 L 15.015625 -3.125 C 15.316406 -2.832031 15.46875 -2.476562 15.46875 -2.0625 L 15.46875 0 L 12.515625 0 L 12.515625 -1.46875 L 8.09375 -5.890625 L 3.6875 -1.46875 L 3.6875 0 L 0.734375 0 L 0.734375 -2.0625 C 0.734375 -2.476562 0.878906 -2.832031 1.171875 -3.125 L 5.40625 -7.359375 L 1.171875 -11.59375 C 0.878906 -11.882812 0.734375 -12.238281 0.734375 -12.65625 L 0.734375 -14.71875 L 3.6875 -14.71875 L 3.6875 -13.25 L 8.09375 -8.828125 L 12.515625 -13.25 L 12.515625 -14.71875 Z M 15.46875 -14.71875 "/></g></g></g><g fill="#7b7b7b" fill-opacity="1"><g transform="translate(189.440332, 189.749988)"><g><path d="M 7.328125 -16.4375 L 6.484375 -15.46875 L 2.578125 -15.46875 L 4.40625 -17.5625 C 4.90625 -18.125 5.523438 -18.40625 6.265625 -18.40625 L 6.625 -18.40625 C 7.09375 -18.40625 7.515625 -18.316406 7.890625 -18.140625 C 8.273438 -17.972656 8.601562 -17.738281 8.875 -17.4375 L 9.71875 -18.40625 L 13.625 -18.40625 L 11.796875 -16.3125 C 11.296875 -15.75 10.675781 -15.46875 9.9375 -15.46875 L 9.578125 -15.46875 C 9.117188 -15.46875 8.695312 -15.550781 8.3125 -15.71875 C 7.925781 -15.882812 7.597656 -16.125 7.328125 -16.4375 Z M 3.6875 -14.71875 L 12.515625 -14.71875 C 13.054688 -14.71875 13.550781 -14.585938 14 -14.328125 C 14.445312 -14.066406 14.800781 -13.710938 15.0625 -13.265625 C 15.332031 -12.816406 15.46875 -12.320312 15.46875 -11.78125 L 15.46875 0 L 12.515625 0 L 12.515625 -5.890625 L 3.6875 -5.890625 L 3.6875 0 L 0.734375 0 L 0.734375 -11.78125 C 0.734375 -12.320312 0.863281 -12.816406 1.125 -13.265625 C 1.394531 -13.710938 1.753906 -14.066406 2.203125 -14.328125 C 2.648438 -14.585938 3.144531 -14.71875 3.6875 -14.71875 Z M 3.6875 -11.78125 L 3.6875 -8.828125 L 12.515625 -8.828125 L 12.515625 -11.78125 Z M 3.6875 -11.78125 "/></g></g></g><g fill="#7b7b7b" fill-opacity="1"><g transform="translate(208.503316, 189.749988)"><g><path d="M 12.515625 0 L 3.6875 0 C 3.144531 0 2.648438 -0.128906 2.203125 -0.390625 C 1.753906 -0.660156 1.394531 -1.019531 1.125 -1.46875 C 0.863281 -1.914062 0.734375 -2.40625 0.734375 -2.9375 L 0.734375 -11.78125 C 0.734375 -12.320312 0.863281 -12.816406 1.125 -13.265625 C 1.394531 -13.710938 1.753906 -14.066406 2.203125 -14.328125 C 2.648438 -14.585938 3.144531 -14.71875 3.6875 -14.71875 L 12.515625 -14.71875 C 13.054688 -14.71875 13.550781 -14.585938 14 -14.328125 C 14.445312 -14.066406 14.800781 -13.710938 15.0625 -13.265625 C 15.332031 -12.816406 15.46875 -12.320312 15.46875 -11.78125 L 15.46875 -2.9375 C 15.46875 -2.414062 15.332031 -1.929688 15.0625 -1.484375 C 14.800781 -1.035156 14.445312 -0.675781 14 -0.40625 C 13.5625 -0.132812 13.066406 0 12.515625 0 Z M 3.6875 -11.78125 L 3.6875 -2.9375 L 12.515625 -2.9375 L 12.515625 -11.78125 Z M 3.6875 -11.78125 "/></g></g></g><g fill="#7b7b7b" fill-opacity="1"><g transform="translate(227.566299, 189.749988)"><g/></g></g><g fill="#7b7b7b" fill-opacity="1"><g transform="translate(238.533939, 189.749988)"><g><path d="M 12.515625 -14.71875 C 13.054688 -14.71875 13.550781 -14.585938 14 -14.328125 C 14.445312 -14.066406 14.800781 -13.710938 15.0625 -13.265625 C 15.332031 -12.816406 15.46875 -12.320312 15.46875 -11.78125 L 15.46875 -8.828125 C 15.46875 -8.296875 15.332031 -7.804688 15.0625 -7.359375 C 14.800781 -6.910156 14.445312 -6.550781 14 -6.28125 C 13.550781 -6.019531 13.054688 -5.890625 12.515625 -5.890625 L 3.6875 -5.890625 L 3.6875 0 L 0.734375 0 L 0.734375 -14.71875 Z M 3.6875 -8.828125 L 12.515625 -8.828125 L 12.515625 -11.78125 L 3.6875 -11.78125 Z M 3.6875 -8.828125 "/></g></g></g><g fill="#7b7b7b" fill-opacity="1"><g transform="translate(257.596922, 189.749988)"><g><path d="M 15.46875 0 L 3.6875 0 C 3.144531 0 2.648438 -0.128906 2.203125 -0.390625 C 1.753906 -0.660156 1.394531 -1.019531 1.125 -1.46875 C 0.863281 -1.914062 0.734375 -2.40625 0.734375 -2.9375 L 0.734375 -11.78125 C 0.734375 -12.320312 0.863281 -12.816406 1.125 -13.265625 C 1.394531 -13.710938 1.753906 -14.066406 2.203125 -14.328125 C 2.648438 -14.585938 3.144531 -14.71875 3.6875 -14.71875 L 15.46875 -14.71875 L 15.46875 -11.78125 L 3.6875 -11.78125 L 3.6875 -2.9375 L 15.46875 -2.9375 Z M 15.46875 0 "/></g></g></g><g fill="#7b7b7b" fill-opacity="1"><g transform="translate(276.659906, 189.749988)"><g><path d="M 12.515625 0 L 0.734375 0 L 0.734375 -14.71875 L 12.515625 -14.71875 C 13.054688 -14.71875 13.550781 -14.585938 14 -14.328125 C 14.445312 -14.066406 14.800781 -13.710938 15.0625 -13.265625 C 15.332031 -12.816406 15.46875 -12.320312 15.46875 -11.78125 L 15.46875 -2.9375 C 15.46875 -2.40625 15.332031 -1.914062 15.0625 -1.46875 C 14.800781 -1.019531 14.445312 -0.660156 14 -0.390625 C 13.550781 -0.128906 13.054688 0 12.515625 0 Z M 3.6875 -11.78125 L 3.6875 -2.9375 L 12.515625 -2.9375 L 12.515625 -11.78125 Z M 3.6875 -11.78125 "/></g></g></g><g fill="#646262" fill-opacity="1"><g transform="translate(109.190931, 162.58077)"><g><path d="M 5.734375 0 L 4.21875 -2.15625 C 4.03125 -2.132812 3.882812 -2.125 3.78125 -2.125 L 2.046875 -2.125 L 2.046875 0 L 1.046875 0 L 1.046875 -7 L 3.78125 -7 C 4.6875 -7 5.398438 -6.78125 5.921875 -6.34375 C 6.441406 -5.914062 6.703125 -5.320312 6.703125 -4.5625 C 6.703125 -4.019531 6.566406 -3.554688 6.296875 -3.171875 C 6.035156 -2.796875 5.65625 -2.519531 5.15625 -2.34375 L 6.8125 0 Z M 3.75 -2.984375 C 4.382812 -2.984375 4.867188 -3.117188 5.203125 -3.390625 C 5.535156 -3.660156 5.703125 -4.050781 5.703125 -4.5625 C 5.703125 -5.0625 5.535156 -5.445312 5.203125 -5.71875 C 4.867188 -5.988281 4.382812 -6.125 3.75 -6.125 L 2.046875 -6.125 L 2.046875 -2.984375 Z M 3.75 -2.984375 "/></g></g></g><g fill="#646262" fill-opacity="1"><g transform="translate(117.998074, 162.58077)"><g><path d="M 6.125 -0.875 L 6.125 0 L 1.046875 0 L 1.046875 -7 L 5.984375 -7 L 5.984375 -6.125 L 2.046875 -6.125 L 2.046875 -3.984375 L 5.5625 -3.984375 L 5.5625 -3.125 L 2.046875 -3.125 L 2.046875 -0.875 Z M 6.125 -0.875 "/></g></g></g><g fill="#646262" fill-opacity="1"><g transform="translate(126.235438, 162.58077)"><g><path d="M 1.046875 -7 L 4 -7 C 4.738281 -7 5.394531 -6.851562 5.96875 -6.5625 C 6.539062 -6.269531 6.984375 -5.859375 7.296875 -5.328125 C 7.617188 -4.796875 7.78125 -4.1875 7.78125 -3.5 C 7.78125 -2.8125 7.617188 -2.203125 7.296875 -1.671875 C 6.984375 -1.140625 6.539062 -0.726562 5.96875 -0.4375 C 5.394531 -0.144531 4.738281 0 4 0 L 1.046875 0 Z M 3.9375 -0.875 C 4.507812 -0.875 5.007812 -0.984375 5.4375 -1.203125 C 5.863281 -1.421875 6.191406 -1.726562 6.421875 -2.125 C 6.660156 -2.519531 6.78125 -2.976562 6.78125 -3.5 C 6.78125 -4.019531 6.660156 -4.476562 6.421875 -4.875 C 6.191406 -5.269531 5.863281 -5.578125 5.4375 -5.796875 C 5.007812 -6.015625 4.507812 -6.125 3.9375 -6.125 L 2.046875 -6.125 L 2.046875 -0.875 Z M 3.9375 -0.875 "/></g></g></g><g fill="#646262" fill-opacity="1"><g transform="translate(136.032185, 162.58077)"><g><path d="M 6.125 -0.875 L 6.125 0 L 1.046875 0 L 1.046875 -7 L 5.984375 -7 L 5.984375 -6.125 L 2.046875 -6.125 L 2.046875 -3.984375 L 5.5625 -3.984375 L 5.5625 -3.125 L 2.046875 -3.125 L 2.046875 -0.875 Z M 6.125 -0.875 "/></g></g></g><g fill="#646262" fill-opacity="1"><g transform="translate(144.26955, 162.58077)"><g/></g></g><g fill="#646262" fill-opacity="1"><g transform="translate(148.498497, 162.58077)"><g><path d="M 1.046875 -7 L 4 -7 C 4.738281 -7 5.394531 -6.851562 5.96875 -6.5625 C 6.539062 -6.269531 6.984375 -5.859375 7.296875 -5.328125 C 7.617188 -4.796875 7.78125 -4.1875 7.78125 -3.5 C 7.78125 -2.8125 7.617188 -2.203125 7.296875 -1.671875 C 6.984375 -1.140625 6.539062 -0.726562 5.96875 -0.4375 C 5.394531 -0.144531 4.738281 0 4 0 L 1.046875 0 Z M 3.9375 -0.875 C 4.507812 -0.875 5.007812 -0.984375 5.4375 -1.203125 C 5.863281 -1.421875 6.191406 -1.726562 6.421875 -2.125 C 6.660156 -2.519531 6.78125 -2.976562 6.78125 -3.5 C 6.78125 -4.019531 6.660156 -4.476562 6.421875 -4.875 C 6.191406 -5.269531 5.863281 -5.578125 5.4375 -5.796875 C 5.007812 -6.015625 4.507812 -6.125 3.9375 -6.125 L 2.046875 -6.125 L 2.046875 -0.875 Z M 3.9375 -0.875 "/></g></g></g><g fill="#646262" fill-opacity="1"><g transform="translate(158.295242, 162.58077)"><g><path d="M 6.125 -0.875 L 6.125 0 L 1.046875 0 L 1.046875 -7 L 5.984375 -7 L 5.984375 -6.125 L 2.046875 -6.125 L 2.046875 -3.984375 L 5.5625 -3.984375 L 5.5625 -3.125 L 2.046875 -3.125 L 2.046875 -0.875 Z M 6.125 -0.875 "/></g></g></g><g fill="#646262" fill-opacity="1"><g transform="translate(166.532608, 162.58077)"><g/></g></g><g fill="#646262" fill-opacity="1"><g transform="translate(170.761554, 162.58077)"><g><path d="M 5.515625 -1.75 L 1.796875 -1.75 L 1.015625 0 L -0.015625 0 L 3.15625 -7 L 4.15625 -7 L 7.328125 0 L 6.28125 0 Z M 5.15625 -2.546875 L 3.65625 -5.984375 L 2.140625 -2.546875 Z M 5.15625 -2.546875 "/></g></g></g><g fill="#646262" fill-opacity="1"><g transform="translate(179.618674, 162.58077)"><g><path d="M 4.1875 0.078125 C 3.476562 0.078125 2.84375 -0.0703125 2.28125 -0.375 C 1.71875 -0.6875 1.273438 -1.113281 0.953125 -1.65625 C 0.640625 -2.207031 0.484375 -2.820312 0.484375 -3.5 C 0.484375 -4.175781 0.640625 -4.785156 0.953125 -5.328125 C 1.273438 -5.878906 1.71875 -6.304688 2.28125 -6.609375 C 2.851562 -6.921875 3.488281 -7.078125 4.1875 -7.078125 C 4.738281 -7.078125 5.238281 -6.984375 5.6875 -6.796875 C 6.144531 -6.617188 6.53125 -6.347656 6.84375 -5.984375 L 6.203125 -5.359375 C 5.671875 -5.910156 5.015625 -6.1875 4.234375 -6.1875 C 3.710938 -6.1875 3.238281 -6.066406 2.8125 -5.828125 C 2.394531 -5.597656 2.066406 -5.28125 1.828125 -4.875 C 1.597656 -4.46875 1.484375 -4.007812 1.484375 -3.5 C 1.484375 -2.988281 1.597656 -2.53125 1.828125 -2.125 C 2.066406 -1.71875 2.394531 -1.394531 2.8125 -1.15625 C 3.238281 -0.925781 3.710938 -0.8125 4.234375 -0.8125 C 5.015625 -0.8125 5.671875 -1.09375 6.203125 -1.65625 L 6.84375 -1.015625 C 6.53125 -0.660156 6.144531 -0.390625 5.6875 -0.203125 C 5.226562 -0.015625 4.726562 0.078125 4.1875 0.078125 Z M 4.1875 0.078125 "/></g></g></g><g fill="#646262" fill-opacity="1"><g transform="translate(188.385832, 162.58077)"><g><path d="M 6.125 -0.875 L 6.125 0 L 1.046875 0 L 1.046875 -7 L 5.984375 -7 L 5.984375 -6.125 L 2.046875 -6.125 L 2.046875 -3.984375 L 5.5625 -3.984375 L 5.5625 -3.125 L 2.046875 -3.125 L 2.046875 -0.875 Z M 6.125 -0.875 "/></g></g></g><g fill="#646262" fill-opacity="1"><g transform="translate(196.623197, 162.58077)"><g><path d="M 3.09375 0.078125 C 2.5625 0.078125 2.050781 0 1.5625 -0.15625 C 1.070312 -0.320312 0.6875 -0.535156 0.40625 -0.796875 L 0.78125 -1.578125 C 1.050781 -1.335938 1.394531 -1.140625 1.8125 -0.984375 C 2.226562 -0.835938 2.65625 -0.765625 3.09375 -0.765625 C 3.664062 -0.765625 4.09375 -0.863281 4.375 -1.0625 C 4.664062 -1.257812 4.8125 -1.519531 4.8125 -1.84375 C 4.8125 -2.082031 4.734375 -2.273438 4.578125 -2.421875 C 4.421875 -2.578125 4.226562 -2.695312 4 -2.78125 C 3.769531 -2.863281 3.445312 -2.953125 3.03125 -3.046875 C 2.5 -3.171875 2.070312 -3.296875 1.75 -3.421875 C 1.425781 -3.554688 1.148438 -3.753906 0.921875 -4.015625 C 0.691406 -4.273438 0.578125 -4.628906 0.578125 -5.078125 C 0.578125 -5.453125 0.675781 -5.789062 0.875 -6.09375 C 1.070312 -6.394531 1.367188 -6.632812 1.765625 -6.8125 C 2.171875 -6.988281 2.671875 -7.078125 3.265625 -7.078125 C 3.671875 -7.078125 4.070312 -7.023438 4.46875 -6.921875 C 4.875 -6.816406 5.222656 -6.660156 5.515625 -6.453125 L 5.1875 -5.65625 C 4.882812 -5.84375 4.566406 -5.984375 4.234375 -6.078125 C 3.898438 -6.179688 3.578125 -6.234375 3.265625 -6.234375 C 2.691406 -6.234375 2.265625 -6.128906 1.984375 -5.921875 C 1.703125 -5.710938 1.5625 -5.445312 1.5625 -5.125 C 1.5625 -4.882812 1.640625 -4.6875 1.796875 -4.53125 C 1.960938 -4.382812 2.160156 -4.269531 2.390625 -4.1875 C 2.628906 -4.101562 2.953125 -4.015625 3.359375 -3.921875 C 3.890625 -3.796875 4.3125 -3.664062 4.625 -3.53125 C 4.945312 -3.40625 5.222656 -3.210938 5.453125 -2.953125 C 5.679688 -2.691406 5.796875 -2.34375 5.796875 -1.90625 C 5.796875 -1.539062 5.695312 -1.207031 5.5 -0.90625 C 5.300781 -0.601562 5 -0.363281 4.59375 -0.1875 C 4.1875 -0.0078125 3.6875 0.078125 3.09375 0.078125 Z M 3.09375 0.078125 "/></g></g></g><g fill="#646262" fill-opacity="1"><g transform="translate(204.370755, 162.58077)"><g><path d="M 3.09375 0.078125 C 2.5625 0.078125 2.050781 0 1.5625 -0.15625 C 1.070312 -0.320312 0.6875 -0.535156 0.40625 -0.796875 L 0.78125 -1.578125 C 1.050781 -1.335938 1.394531 -1.140625 1.8125 -0.984375 C 2.226562 -0.835938 2.65625 -0.765625 3.09375 -0.765625 C 3.664062 -0.765625 4.09375 -0.863281 4.375 -1.0625 C 4.664062 -1.257812 4.8125 -1.519531 4.8125 -1.84375 C 4.8125 -2.082031 4.734375 -2.273438 4.578125 -2.421875 C 4.421875 -2.578125 4.226562 -2.695312 4 -2.78125 C 3.769531 -2.863281 3.445312 -2.953125 3.03125 -3.046875 C 2.5 -3.171875 2.070312 -3.296875 1.75 -3.421875 C 1.425781 -3.554688 1.148438 -3.753906 0.921875 -4.015625 C 0.691406 -4.273438 0.578125 -4.628906 0.578125 -5.078125 C 0.578125 -5.453125 0.675781 -5.789062 0.875 -6.09375 C 1.070312 -6.394531 1.367188 -6.632812 1.765625 -6.8125 C 2.171875 -6.988281 2.671875 -7.078125 3.265625 -7.078125 C 3.671875 -7.078125 4.070312 -7.023438 4.46875 -6.921875 C 4.875 -6.816406 5.222656 -6.660156 5.515625 -6.453125 L 5.1875 -5.65625 C 4.882812 -5.84375 4.566406 -5.984375 4.234375 -6.078125 C 3.898438 -6.179688 3.578125 -6.234375 3.265625 -6.234375 C 2.691406 -6.234375 2.265625 -6.128906 1.984375 -5.921875 C 1.703125 -5.710938 1.5625 -5.445312 1.5625 -5.125 C 1.5625 -4.882812 1.640625 -4.6875 1.796875 -4.53125 C 1.960938 -4.382812 2.160156 -4.269531 2.390625 -4.1875 C 2.628906 -4.101562 2.953125 -4.015625 3.359375 -3.921875 C 3.890625 -3.796875 4.3125 -3.664062 4.625 -3.53125 C 4.945312 -3.40625 5.222656 -3.210938 5.453125 -2.953125 C 5.679688 -2.691406 5.796875 -2.34375 5.796875 -1.90625 C 5.796875 -1.539062 5.695312 -1.207031 5.5 -0.90625 C 5.300781 -0.601562 5 -0.363281 4.59375 -0.1875 C 4.1875 -0.0078125 3.6875 0.078125 3.09375 0.078125 Z M 3.09375 0.078125 "/></g></g></g><g fill="#646262" fill-opacity="1"><g transform="translate(212.118307, 162.58077)"><g><path d="M 1.046875 -7 L 2.046875 -7 L 2.046875 0 L 1.046875 0 Z M 1.046875 -7 "/></g></g></g><g fill="#646262" fill-opacity="1"><g transform="translate(216.75709, 162.58077)"><g><path d="M 5.765625 -3.625 C 6.171875 -3.507812 6.488281 -3.300781 6.71875 -3 C 6.945312 -2.707031 7.0625 -2.335938 7.0625 -1.890625 C 7.0625 -1.285156 6.832031 -0.816406 6.375 -0.484375 C 5.925781 -0.160156 5.265625 0 4.390625 0 L 1.046875 0 L 1.046875 -7 L 4.1875 -7 C 4.988281 -7 5.609375 -6.835938 6.046875 -6.515625 C 6.484375 -6.203125 6.703125 -5.757812 6.703125 -5.1875 C 6.703125 -4.820312 6.613281 -4.503906 6.4375 -4.234375 C 6.269531 -3.972656 6.046875 -3.769531 5.765625 -3.625 Z M 2.046875 -6.1875 L 2.046875 -3.953125 L 4.09375 -3.953125 C 4.613281 -3.953125 5.007812 -4.046875 5.28125 -4.234375 C 5.5625 -4.421875 5.703125 -4.695312 5.703125 -5.0625 C 5.703125 -5.4375 5.5625 -5.71875 5.28125 -5.90625 C 5.007812 -6.09375 4.613281 -6.1875 4.09375 -6.1875 Z M 4.34375 -0.8125 C 4.914062 -0.8125 5.34375 -0.90625 5.625 -1.09375 C 5.914062 -1.28125 6.0625 -1.570312 6.0625 -1.96875 C 6.0625 -2.75 5.488281 -3.140625 4.34375 -3.140625 L 2.046875 -3.140625 L 2.046875 -0.8125 Z M 4.34375 -0.8125 "/></g></g></g><g fill="#646262" fill-opacity="1"><g transform="translate(225.864114, 162.58077)"><g><path d="M 1.046875 -7 L 2.046875 -7 L 2.046875 0 L 1.046875 0 Z M 1.046875 -7 "/></g></g></g><g fill="#646262" fill-opacity="1"><g transform="translate(230.502896, 162.58077)"><g><path d="M 1.046875 -7 L 2.046875 -7 L 2.046875 -0.875 L 5.84375 -0.875 L 5.84375 0 L 1.046875 0 Z M 1.046875 -7 "/></g></g></g><g fill="#646262" fill-opacity="1"><g transform="translate(237.980557, 162.58077)"><g><path d="M 1.046875 -7 L 2.046875 -7 L 2.046875 0 L 1.046875 0 Z M 1.046875 -7 "/></g></g></g><g fill="#646262" fill-opacity="1"><g transform="translate(242.619339, 162.58077)"><g><path d="M 1.046875 -7 L 4 -7 C 4.738281 -7 5.394531 -6.851562 5.96875 -6.5625 C 6.539062 -6.269531 6.984375 -5.859375 7.296875 -5.328125 C 7.617188 -4.796875 7.78125 -4.1875 7.78125 -3.5 C 7.78125 -2.8125 7.617188 -2.203125 7.296875 -1.671875 C 6.984375 -1.140625 6.539062 -0.726562 5.96875 -0.4375 C 5.394531 -0.144531 4.738281 0 4 0 L 1.046875 0 Z M 3.9375 -0.875 C 4.507812 -0.875 5.007812 -0.984375 5.4375 -1.203125 C 5.863281 -1.421875 6.191406 -1.726562 6.421875 -2.125 C 6.660156 -2.519531 6.78125 -2.976562 6.78125 -3.5 C 6.78125 -4.019531 6.660156 -4.476562 6.421875 -4.875 C 6.191406 -5.269531 5.863281 -5.578125 5.4375 -5.796875 C 5.007812 -6.015625 4.507812 -6.125 3.9375 -6.125 L 2.046875 -6.125 L 2.046875 -0.875 Z M 3.9375 -0.875 "/></g></g></g><g fill="#646262" fill-opacity="1"><g transform="translate(252.416088, 162.58077)"><g><path d="M 5.515625 -1.75 L 1.796875 -1.75 L 1.015625 0 L -0.015625 0 L 3.15625 -7 L 4.15625 -7 L 7.328125 0 L 6.28125 0 Z M 5.15625 -2.546875 L 3.65625 -5.984375 L 2.140625 -2.546875 Z M 5.15625 -2.546875 "/></g></g></g><g fill="#646262" fill-opacity="1"><g transform="translate(261.273208, 162.58077)"><g><path d="M 1.046875 -7 L 4 -7 C 4.738281 -7 5.394531 -6.851562 5.96875 -6.5625 C 6.539062 -6.269531 6.984375 -5.859375 7.296875 -5.328125 C 7.617188 -4.796875 7.78125 -4.1875 7.78125 -3.5 C 7.78125 -2.8125 7.617188 -2.203125 7.296875 -1.671875 C 6.984375 -1.140625 6.539062 -0.726562 5.96875 -0.4375 C 5.394531 -0.144531 4.738281 0 4 0 L 1.046875 0 Z M 3.9375 -0.875 C 4.507812 -0.875 5.007812 -0.984375 5.4375 -1.203125 C 5.863281 -1.421875 6.191406 -1.726562 6.421875 -2.125 C 6.660156 -2.519531 6.78125 -2.976562 6.78125 -3.5 C 6.78125 -4.019531 6.660156 -4.476562 6.421875 -4.875 C 6.191406 -5.269531 5.863281 -5.578125 5.4375 -5.796875 C 5.007812 -6.015625 4.507812 -6.125 3.9375 -6.125 L 2.046875 -6.125 L 2.046875 -0.875 Z M 3.9375 -0.875 "/></g></g></g><g fill="#646262" fill-opacity="1"><g transform="translate(271.069956, 162.58077)"><g><path d="M 6.125 -0.875 L 6.125 0 L 1.046875 0 L 1.046875 -7 L 5.984375 -7 L 5.984375 -6.125 L 2.046875 -6.125 L 2.046875 -3.984375 L 5.5625 -3.984375 L 5.5625 -3.125 L 2.046875 -3.125 L 2.046875 -0.875 Z M 6.125 -0.875 "/></g></g></g><g fill="#646262" fill-opacity="1"><g transform="translate(43.871334, 212.032486)"><g><path d="M 9.796875 0 L 9.78125 -6.625 L 6.5 -1.109375 L 5.90625 -1.109375 L 2.609375 -6.59375 L 2.609375 0 L 1.359375 0 L 1.359375 -9.09375 L 2.4375 -9.09375 L 6.234375 -2.703125 L 9.96875 -9.09375 L 11.03125 -9.09375 L 11.046875 0 Z M 9.796875 0 "/></g></g></g><g fill="#646262" fill-opacity="1"><g transform="translate(58.284527, 212.032486)"><g><path d="M 7.15625 -2.28125 L 2.328125 -2.28125 L 1.328125 0 L -0.015625 0 L 4.109375 -9.09375 L 5.390625 -9.09375 L 9.53125 0 L 8.15625 0 Z M 6.703125 -3.3125 L 4.75 -7.78125 L 2.78125 -3.3125 Z M 6.703125 -3.3125 "/></g></g></g><g fill="#646262" fill-opacity="1"><g transform="translate(69.799607, 212.032486)"><g><path d="M 4.90625 -9.09375 C 6.09375 -9.09375 7.019531 -8.8125 7.6875 -8.25 C 8.363281 -7.6875 8.703125 -6.910156 8.703125 -5.921875 C 8.703125 -4.941406 8.363281 -4.164062 7.6875 -3.59375 C 7.019531 -3.03125 6.09375 -2.75 4.90625 -2.75 L 2.671875 -2.75 L 2.671875 0 L 1.359375 0 L 1.359375 -9.09375 Z M 4.875 -3.890625 C 5.695312 -3.890625 6.320312 -4.0625 6.75 -4.40625 C 7.1875 -4.757812 7.40625 -5.265625 7.40625 -5.921875 C 7.40625 -6.585938 7.1875 -7.09375 6.75 -7.4375 C 6.320312 -7.789062 5.695312 -7.96875 4.875 -7.96875 L 2.671875 -7.96875 L 2.671875 -3.890625 Z M 4.875 -3.890625 "/></g></g></g><g fill="#646262" fill-opacity="1"><g transform="translate(81.18473, 212.032486)"><g><path d="M 7.96875 -1.125 L 7.96875 0 L 1.359375 0 L 1.359375 -9.09375 L 7.78125 -9.09375 L 7.78125 -7.96875 L 2.671875 -7.96875 L 2.671875 -5.171875 L 7.234375 -5.171875 L 7.234375 -4.0625 L 2.671875 -4.0625 L 2.671875 -1.125 Z M 7.96875 -1.125 "/></g></g></g><g fill="#646262" fill-opacity="1"><g transform="translate(91.894053, 212.032486)"><g><path d="M 7.15625 -2.28125 L 2.328125 -2.28125 L 1.328125 0 L -0.015625 0 L 4.109375 -9.09375 L 5.390625 -9.09375 L 9.53125 0 L 8.15625 0 Z M 6.703125 -3.3125 L 4.75 -7.78125 L 2.78125 -3.3125 Z M 6.703125 -3.3125 "/></g></g></g><g fill="#646262" fill-opacity="1"><g transform="translate(103.409132, 212.032486)"><g><path d="M 9.1875 -9.09375 L 9.1875 0 L 8.125 0 L 2.671875 -6.78125 L 2.671875 0 L 1.359375 0 L 1.359375 -9.09375 L 2.4375 -9.09375 L 7.890625 -2.3125 L 7.890625 -9.09375 Z M 9.1875 -9.09375 "/></g></g></g><g fill="#646262" fill-opacity="1"><g transform="translate(115.963895, 212.032486)"><g><path d="M 1.359375 -9.09375 L 5.203125 -9.09375 C 6.160156 -9.09375 7.007812 -8.898438 7.75 -8.515625 C 8.5 -8.140625 9.078125 -7.609375 9.484375 -6.921875 C 9.898438 -6.234375 10.109375 -5.441406 10.109375 -4.546875 C 10.109375 -3.660156 9.898438 -2.867188 9.484375 -2.171875 C 9.078125 -1.484375 8.5 -0.945312 7.75 -0.5625 C 7.007812 -0.1875 6.160156 0 5.203125 0 L 1.359375 0 Z M 5.125 -1.125 C 5.863281 -1.125 6.507812 -1.265625 7.0625 -1.546875 C 7.625 -1.835938 8.054688 -2.238281 8.359375 -2.75 C 8.660156 -3.269531 8.8125 -3.867188 8.8125 -4.546875 C 8.8125 -5.222656 8.660156 -5.816406 8.359375 -6.328125 C 8.054688 -6.847656 7.625 -7.25 7.0625 -7.53125 C 6.507812 -7.820312 5.863281 -7.96875 5.125 -7.96875 L 2.671875 -7.96875 L 2.671875 -1.125 Z M 5.125 -1.125 "/></g></g></g><g fill="#646262" fill-opacity="1"><g transform="translate(128.700596, 212.032486)"><g><path d="M 5.46875 0.109375 C 4.550781 0.109375 3.722656 -0.09375 2.984375 -0.5 C 2.253906 -0.90625 1.675781 -1.460938 1.25 -2.171875 C 0.832031 -2.878906 0.625 -3.671875 0.625 -4.546875 C 0.625 -5.421875 0.832031 -6.210938 1.25 -6.921875 C 1.675781 -7.640625 2.253906 -8.195312 2.984375 -8.59375 C 3.722656 -9 4.550781 -9.203125 5.46875 -9.203125 C 6.382812 -9.203125 7.207031 -9 7.9375 -8.59375 C 8.675781 -8.195312 9.253906 -7.644531 9.671875 -6.9375 C 10.085938 -6.226562 10.296875 -5.429688 10.296875 -4.546875 C 10.296875 -3.660156 10.085938 -2.863281 9.671875 -2.15625 C 9.253906 -1.457031 8.675781 -0.90625 7.9375 -0.5 C 7.207031 -0.09375 6.382812 0.109375 5.46875 0.109375 Z M 5.46875 -1.046875 C 6.132812 -1.046875 6.734375 -1.195312 7.265625 -1.5 C 7.804688 -1.8125 8.226562 -2.234375 8.53125 -2.765625 C 8.84375 -3.296875 9 -3.890625 9 -4.546875 C 9 -5.203125 8.84375 -5.796875 8.53125 -6.328125 C 8.226562 -6.867188 7.804688 -7.289062 7.265625 -7.59375 C 6.734375 -7.894531 6.132812 -8.046875 5.46875 -8.046875 C 4.800781 -8.046875 4.195312 -7.894531 3.65625 -7.59375 C 3.113281 -7.289062 2.6875 -6.867188 2.375 -6.328125 C 2.070312 -5.796875 1.921875 -5.203125 1.921875 -4.546875 C 1.921875 -3.890625 2.070312 -3.296875 2.375 -2.765625 C 2.6875 -2.234375 3.113281 -1.8125 3.65625 -1.5 C 4.195312 -1.195312 4.800781 -1.046875 5.46875 -1.046875 Z M 5.46875 -1.046875 "/></g></g></g><g fill="#646262" fill-opacity="1"><g transform="translate(141.619252, 212.032486)"><g/></g></g><g fill="#646262" fill-opacity="1"><g transform="translate(147.117176, 212.032486)"><g><path d="M 5.140625 0.109375 C 3.921875 0.109375 2.972656 -0.234375 2.296875 -0.921875 C 1.617188 -1.617188 1.28125 -2.617188 1.28125 -3.921875 L 1.28125 -9.09375 L 2.59375 -9.09375 L 2.59375 -3.984375 C 2.59375 -2.023438 3.441406 -1.046875 5.140625 -1.046875 C 5.972656 -1.046875 6.609375 -1.285156 7.046875 -1.765625 C 7.492188 -2.253906 7.71875 -2.992188 7.71875 -3.984375 L 7.71875 -9.09375 L 8.984375 -9.09375 L 8.984375 -3.921875 C 8.984375 -2.617188 8.644531 -1.617188 7.96875 -0.921875 C 7.289062 -0.234375 6.347656 0.109375 5.140625 0.109375 Z M 5.140625 0.109375 "/></g></g></g><g fill="#646262" fill-opacity="1"><g transform="translate(159.39902, 212.032486)"><g><path d="M 9.796875 0 L 9.78125 -6.625 L 6.5 -1.109375 L 5.90625 -1.109375 L 2.609375 -6.59375 L 2.609375 0 L 1.359375 0 L 1.359375 -9.09375 L 2.4375 -9.09375 L 6.234375 -2.703125 L 9.96875 -9.09375 L 11.03125 -9.09375 L 11.046875 0 Z M 9.796875 0 "/></g></g></g><g fill="#646262" fill-opacity="1"><g transform="translate(173.812212, 212.032486)"><g/></g></g><g fill="#646262" fill-opacity="1"><g transform="translate(179.310136, 212.032486)"><g><path d="M 2.671875 -7.96875 L 2.671875 -4.796875 L 7.234375 -4.796875 L 7.234375 -3.671875 L 2.671875 -3.671875 L 2.671875 0 L 1.359375 0 L 1.359375 -9.09375 L 7.78125 -9.09375 L 7.78125 -7.96875 Z M 2.671875 -7.96875 "/></g></g></g><g fill="#646262" fill-opacity="1"><g transform="translate(189.564603, 212.032486)"><g><path d="M 5.140625 0.109375 C 3.921875 0.109375 2.972656 -0.234375 2.296875 -0.921875 C 1.617188 -1.617188 1.28125 -2.617188 1.28125 -3.921875 L 1.28125 -9.09375 L 2.59375 -9.09375 L 2.59375 -3.984375 C 2.59375 -2.023438 3.441406 -1.046875 5.140625 -1.046875 C 5.972656 -1.046875 6.609375 -1.285156 7.046875 -1.765625 C 7.492188 -2.253906 7.71875 -2.992188 7.71875 -3.984375 L 7.71875 -9.09375 L 8.984375 -9.09375 L 8.984375 -3.921875 C 8.984375 -2.617188 8.644531 -1.617188 7.96875 -0.921875 C 7.289062 -0.234375 6.347656 0.109375 5.140625 0.109375 Z M 5.140625 0.109375 "/></g></g></g><g fill="#646262" fill-opacity="1"><g transform="translate(201.846447, 212.032486)"><g><path d="M 3.171875 -7.96875 L 0.046875 -7.96875 L 0.046875 -9.09375 L 7.578125 -9.09375 L 7.578125 -7.96875 L 4.453125 -7.96875 L 4.453125 0 L 3.171875 0 Z M 3.171875 -7.96875 "/></g></g></g><g fill="#646262" fill-opacity="1"><g transform="translate(211.477107, 212.032486)"><g><path d="M 5.140625 0.109375 C 3.921875 0.109375 2.972656 -0.234375 2.296875 -0.921875 C 1.617188 -1.617188 1.28125 -2.617188 1.28125 -3.921875 L 1.28125 -9.09375 L 2.59375 -9.09375 L 2.59375 -3.984375 C 2.59375 -2.023438 3.441406 -1.046875 5.140625 -1.046875 C 5.972656 -1.046875 6.609375 -1.285156 7.046875 -1.765625 C 7.492188 -2.253906 7.71875 -2.992188 7.71875 -3.984375 L 7.71875 -9.09375 L 8.984375 -9.09375 L 8.984375 -3.921875 C 8.984375 -2.617188 8.644531 -1.617188 7.96875 -0.921875 C 7.289062 -0.234375 6.347656 0.109375 5.140625 0.109375 Z M 5.140625 0.109375 "/></g></g></g><g fill="#646262" fill-opacity="1"><g transform="translate(223.758952, 212.032486)"><g><path d="M 7.453125 0 L 5.484375 -2.796875 C 5.242188 -2.773438 5.050781 -2.765625 4.90625 -2.765625 L 2.671875 -2.765625 L 2.671875 0 L 1.359375 0 L 1.359375 -9.09375 L 4.90625 -9.09375 C 6.09375 -9.09375 7.019531 -8.8125 7.6875 -8.25 C 8.363281 -7.6875 8.703125 -6.910156 8.703125 -5.921875 C 8.703125 -5.222656 8.53125 -4.625 8.1875 -4.125 C 7.84375 -3.632812 7.347656 -3.28125 6.703125 -3.0625 L 8.859375 0 Z M 4.875 -3.875 C 5.695312 -3.875 6.320312 -4.050781 6.75 -4.40625 C 7.1875 -4.757812 7.40625 -5.265625 7.40625 -5.921875 C 7.40625 -6.585938 7.1875 -7.09375 6.75 -7.4375 C 6.320312 -7.789062 5.695312 -7.96875 4.875 -7.96875 L 2.671875 -7.96875 L 2.671875 -3.875 Z M 4.875 -3.875 "/></g></g></g><g fill="#646262" fill-opacity="1"><g transform="translate(235.209051, 212.032486)"><g><path d="M 5.46875 0.109375 C 4.550781 0.109375 3.722656 -0.09375 2.984375 -0.5 C 2.253906 -0.90625 1.675781 -1.460938 1.25 -2.171875 C 0.832031 -2.878906 0.625 -3.671875 0.625 -4.546875 C 0.625 -5.421875 0.832031 -6.210938 1.25 -6.921875 C 1.675781 -7.640625 2.253906 -8.195312 2.984375 -8.59375 C 3.722656 -9 4.550781 -9.203125 5.46875 -9.203125 C 6.382812 -9.203125 7.207031 -9 7.9375 -8.59375 C 8.675781 -8.195312 9.253906 -7.644531 9.671875 -6.9375 C 10.085938 -6.226562 10.296875 -5.429688 10.296875 -4.546875 C 10.296875 -3.660156 10.085938 -2.863281 9.671875 -2.15625 C 9.253906 -1.457031 8.675781 -0.90625 7.9375 -0.5 C 7.207031 -0.09375 6.382812 0.109375 5.46875 0.109375 Z M 5.46875 -1.046875 C 6.132812 -1.046875 6.734375 -1.195312 7.265625 -1.5 C 7.804688 -1.8125 8.226562 -2.234375 8.53125 -2.765625 C 8.84375 -3.296875 9 -3.890625 9 -4.546875 C 9 -5.203125 8.84375 -5.796875 8.53125 -6.328125 C 8.226562 -6.867188 7.804688 -7.289062 7.265625 -7.59375 C 6.734375 -7.894531 6.132812 -8.046875 5.46875 -8.046875 C 4.800781 -8.046875 4.195312 -7.894531 3.65625 -7.59375 C 3.113281 -7.289062 2.6875 -6.867188 2.375 -6.328125 C 2.070312 -5.796875 1.921875 -5.203125 1.921875 -4.546875 C 1.921875 -3.890625 2.070312 -3.296875 2.375 -2.765625 C 2.6875 -2.234375 3.113281 -1.8125 3.65625 -1.5 C 4.195312 -1.195312 4.800781 -1.046875 5.46875 -1.046875 Z M 5.46875 -1.046875 "/></g></g></g><g fill="#646262" fill-opacity="1"><g transform="translate(248.127713, 212.032486)"><g/></g></g><g fill="#646262" fill-opacity="1"><g transform="translate(253.625638, 212.032486)"><g><path d="M 7.15625 -2.28125 L 2.328125 -2.28125 L 1.328125 0 L -0.015625 0 L 4.109375 -9.09375 L 5.390625 -9.09375 L 9.53125 0 L 8.15625 0 Z M 6.703125 -3.3125 L 4.75 -7.78125 L 2.78125 -3.3125 Z M 6.703125 -3.3125 "/></g></g></g><g fill="#646262" fill-opacity="1"><g transform="translate(265.140728, 212.032486)"><g><path d="M 5.4375 0.109375 C 4.519531 0.109375 3.695312 -0.09375 2.96875 -0.5 C 2.238281 -0.90625 1.664062 -1.457031 1.25 -2.15625 C 0.832031 -2.863281 0.625 -3.660156 0.625 -4.546875 C 0.625 -5.429688 0.832031 -6.226562 1.25 -6.9375 C 1.664062 -7.644531 2.238281 -8.195312 2.96875 -8.59375 C 3.707031 -9 4.535156 -9.203125 5.453125 -9.203125 C 6.160156 -9.203125 6.804688 -9.082031 7.390625 -8.84375 C 7.984375 -8.601562 8.488281 -8.25 8.90625 -7.78125 L 8.0625 -6.96875 C 7.375 -7.6875 6.519531 -8.046875 5.5 -8.046875 C 4.820312 -8.046875 4.207031 -7.894531 3.65625 -7.59375 C 3.113281 -7.289062 2.6875 -6.867188 2.375 -6.328125 C 2.070312 -5.796875 1.921875 -5.203125 1.921875 -4.546875 C 1.921875 -3.890625 2.070312 -3.296875 2.375 -2.765625 C 2.6875 -2.234375 3.113281 -1.8125 3.65625 -1.5 C 4.207031 -1.195312 4.820312 -1.046875 5.5 -1.046875 C 6.507812 -1.046875 7.363281 -1.410156 8.0625 -2.140625 L 8.90625 -1.328125 C 8.488281 -0.859375 7.984375 -0.5 7.390625 -0.25 C 6.796875 -0.0078125 6.144531 0.109375 5.4375 0.109375 Z M 5.4375 0.109375 "/></g></g></g><g fill="#646262" fill-opacity="1"><g transform="translate(276.538859, 212.032486)"><g><path d="M 7.96875 -1.125 L 7.96875 0 L 1.359375 0 L 1.359375 -9.09375 L 7.78125 -9.09375 L 7.78125 -7.96875 L 2.671875 -7.96875 L 2.671875 -5.171875 L 7.234375 -5.171875 L 7.234375 -4.0625 L 2.671875 -4.0625 L 2.671875 -1.125 Z M 7.96875 -1.125 "/></g></g></g><g fill="#646262" fill-opacity="1"><g transform="translate(287.248194, 212.032486)"><g><path d="M 4.015625 0.109375 C 3.328125 0.109375 2.664062 0.00390625 2.03125 -0.203125 C 1.394531 -0.421875 0.894531 -0.703125 0.53125 -1.046875 L 1.015625 -2.046875 C 1.359375 -1.742188 1.800781 -1.492188 2.34375 -1.296875 C 2.882812 -1.097656 3.441406 -1 4.015625 -1 C 4.765625 -1 5.328125 -1.125 5.703125 -1.375 C 6.078125 -1.632812 6.265625 -1.976562 6.265625 -2.40625 C 6.265625 -2.71875 6.160156 -2.96875 5.953125 -3.15625 C 5.753906 -3.351562 5.503906 -3.503906 5.203125 -3.609375 C 4.910156 -3.710938 4.488281 -3.832031 3.9375 -3.96875 C 3.25 -4.132812 2.695312 -4.296875 2.28125 -4.453125 C 1.863281 -4.617188 1.503906 -4.875 1.203125 -5.21875 C 0.898438 -5.5625 0.75 -6.023438 0.75 -6.609375 C 0.75 -7.085938 0.875 -7.519531 1.125 -7.90625 C 1.382812 -8.300781 1.773438 -8.613281 2.296875 -8.84375 C 2.816406 -9.082031 3.460938 -9.203125 4.234375 -9.203125 C 4.773438 -9.203125 5.304688 -9.128906 5.828125 -8.984375 C 6.347656 -8.847656 6.789062 -8.648438 7.15625 -8.390625 L 6.734375 -7.359375 C 6.347656 -7.597656 5.9375 -7.78125 5.5 -7.90625 C 5.070312 -8.03125 4.648438 -8.09375 4.234375 -8.09375 C 3.503906 -8.09375 2.953125 -7.957031 2.578125 -7.6875 C 2.210938 -7.425781 2.03125 -7.082031 2.03125 -6.65625 C 2.03125 -6.34375 2.132812 -6.085938 2.34375 -5.890625 C 2.550781 -5.703125 2.804688 -5.550781 3.109375 -5.4375 C 3.421875 -5.332031 3.84375 -5.21875 4.375 -5.09375 C 5.050781 -4.925781 5.597656 -4.757812 6.015625 -4.59375 C 6.429688 -4.4375 6.789062 -4.1875 7.09375 -3.84375 C 7.394531 -3.507812 7.546875 -3.054688 7.546875 -2.484375 C 7.546875 -2.003906 7.414062 -1.566406 7.15625 -1.171875 C 6.894531 -0.773438 6.5 -0.460938 5.96875 -0.234375 C 5.4375 -0.00390625 4.785156 0.109375 4.015625 0.109375 Z M 4.015625 0.109375 "/></g></g></g><g fill="#646262" fill-opacity="1"><g transform="translate(297.320711, 212.032486)"><g><path d="M 4.015625 0.109375 C 3.328125 0.109375 2.664062 0.00390625 2.03125 -0.203125 C 1.394531 -0.421875 0.894531 -0.703125 0.53125 -1.046875 L 1.015625 -2.046875 C 1.359375 -1.742188 1.800781 -1.492188 2.34375 -1.296875 C 2.882812 -1.097656 3.441406 -1 4.015625 -1 C 4.765625 -1 5.328125 -1.125 5.703125 -1.375 C 6.078125 -1.632812 6.265625 -1.976562 6.265625 -2.40625 C 6.265625 -2.71875 6.160156 -2.96875 5.953125 -3.15625 C 5.753906 -3.351562 5.503906 -3.503906 5.203125 -3.609375 C 4.910156 -3.710938 4.488281 -3.832031 3.9375 -3.96875 C 3.25 -4.132812 2.695312 -4.296875 2.28125 -4.453125 C 1.863281 -4.617188 1.503906 -4.875 1.203125 -5.21875 C 0.898438 -5.5625 0.75 -6.023438 0.75 -6.609375 C 0.75 -7.085938 0.875 -7.519531 1.125 -7.90625 C 1.382812 -8.300781 1.773438 -8.613281 2.296875 -8.84375 C 2.816406 -9.082031 3.460938 -9.203125 4.234375 -9.203125 C 4.773438 -9.203125 5.304688 -9.128906 5.828125 -8.984375 C 6.347656 -8.847656 6.789062 -8.648438 7.15625 -8.390625 L 6.734375 -7.359375 C 6.347656 -7.597656 5.9375 -7.78125 5.5 -7.90625 C 5.070312 -8.03125 4.648438 -8.09375 4.234375 -8.09375 C 3.503906 -8.09375 2.953125 -7.957031 2.578125 -7.6875 C 2.210938 -7.425781 2.03125 -7.082031 2.03125 -6.65625 C 2.03125 -6.34375 2.132812 -6.085938 2.34375 -5.890625 C 2.550781 -5.703125 2.804688 -5.550781 3.109375 -5.4375 C 3.421875 -5.332031 3.84375 -5.21875 4.375 -5.09375 C 5.050781 -4.925781 5.597656 -4.757812 6.015625 -4.59375 C 6.429688 -4.4375 6.789062 -4.1875 7.09375 -3.84375 C 7.394531 -3.507812 7.546875 -3.054688 7.546875 -2.484375 C 7.546875 -2.003906 7.414062 -1.566406 7.15625 -1.171875 C 6.894531 -0.773438 6.5 -0.460938 5.96875 -0.234375 C 5.4375 -0.00390625 4.785156 0.109375 4.015625 0.109375 Z M 4.015625 0.109375 "/></g></g></g><g fill="#646262" fill-opacity="1"><g transform="translate(307.393227, 212.032486)"><g><path d="M 1.359375 -9.09375 L 2.671875 -9.09375 L 2.671875 0 L 1.359375 0 Z M 2.8125 -11.53125 L 4.40625 -11.53125 L 2.21875 -9.84375 L 1.046875 -9.84375 Z M 2.8125 -11.53125 "/></g></g></g><g fill="#646262" fill-opacity="1"><g transform="translate(313.423989, 212.032486)"><g><path d="M 9.265625 -9.09375 L 5.28125 0 L 3.984375 0 L -0.015625 -9.09375 L 1.390625 -9.09375 L 4.671875 -1.625 L 7.96875 -9.09375 Z M 9.265625 -9.09375 "/></g></g></g><g fill="#646262" fill-opacity="1"><g transform="translate(324.679161, 212.032486)"><g><path d="M 7.96875 -1.125 L 7.96875 0 L 1.359375 0 L 1.359375 -9.09375 L 7.78125 -9.09375 L 7.78125 -7.96875 L 2.671875 -7.96875 L 2.671875 -5.171875 L 7.234375 -5.171875 L 7.234375 -4.0625 L 2.671875 -4.0625 L 2.671875 -1.125 Z M 7.96875 -1.125 "/></g></g></g><g fill="#646262" fill-opacity="1"><g transform="translate(335.388495, 212.032486)"><g><path d="M 1.359375 -9.09375 L 2.671875 -9.09375 L 2.671875 -1.125 L 7.59375 -1.125 L 7.59375 0 L 1.359375 0 Z M 1.359375 -9.09375 "/></g></g></g></svg>